<svg xmlns="http://www.w3.org/2000/svg" width="50" height="50" fill="none"><g clip-path="url(#a)"><path fill="url(#b)" d="M0 12A12 12 0 0 1 12 0h26a12 12 0 0 1 12 12v26a12 12 0 0 1-12 12H12A12 12 0 0 1 0 38V12Z"/><path fill="#fff" d="M27.22 31.6h-7.78v-2.2h7.78v2.2ZM30.56 27.2H19.44V25h11.12v2.2Z"/><path fill="#fff" fill-rule="evenodd" d="M20.56 16.2h8.88V14h2.23v2.2h1.1c.62 0 1.14.22 1.58.65.43.43.65.95.65 1.55v15.4c0 .6-.22 1.12-.65 1.55-.44.43-.96.65-1.57.65H17.22c-.6 0-1.13-.22-1.57-.65A2.1 2.1 0 0 1 15 33.8V18.4c0-.6.22-1.12.65-1.55.44-.43.96-.65 1.57-.65h1.11V14h2.23v2.2Zm-3.34 17.6h15.56v-11H17.22v11Zm0-13.2h15.56v-2.2H17.22v2.2Z" clip-rule="evenodd"/></g><defs><linearGradient id="b" x1="50" x2="0" y1="49.65" y2=".35" gradientUnits="userSpaceOnUse"><stop stop-color="#8B5CF6"/><stop offset="1" stop-color="#C084FC"/></linearGradient><clipPath id="a"><path fill="#fff" d="M0 0h50v50H0z"/></clipPath></defs></svg>