<svg xmlns="http://www.w3.org/2000/svg" fill="none" viewBox="0 0 50 50"><path fill="#E7B44A" d="M20.5 7a9.5 9.5 0 1 0 0 19 9.5 9.5 0 0 0 0-19Z"/><path fill="#E7B44A" fill-rule="evenodd" d="M9.69 32.69a16 16 0 0 1 21.18-1.28 9 9 0 0 0-1.98 10.5c.13.33.16.7.09 1.05l-.02.04H5.03A16 16 0 0 1 9.7 32.69Z" clip-rule="evenodd"/><path fill="#F5D77F" d="M30.7 41.04c.1.26.12.54.06.82l-.75 2.3a.7.7 0 0 0 .87.82l2.39-.7c.26-.05.52-.03.77.06a7 7 0 1 0-3.35-3.3Z"/><path fill="#E7B44A" fill-rule="evenodd" d="M39.75 44c-.16.22-.32.43-.5.63a7 7 0 0 1-5.21-.29 1.4 1.4 0 0 0-.77-.06l-2.39.7a.7.7 0 0 1-.87-.82l.75-2.3a1.4 1.4 0 0 0-.07-.82 7 7 0 0 1 1.06-7.67 7 7 0 0 1 8 10.63Z" clip-rule="evenodd"/><path fill="#F5D77F" fill-rule="evenodd" d="M40.86 29.87a9 9 0 0 0-8.32.31 18 18 0 0 0-6.67-3.5A11.5 11.5 0 0 0 29.22 9c1.13-.64 2.42-1 3.78-1 4.37 0 7.94 3.66 7.94 8.4v.06c.08 1.55-.2 3.1-.85 4.5a9.38 9.38 0 0 1-2.8 3.56 1 1 0 0 0 0 1.58c1.24.95 2.47 2.24 3.57 3.77Z" clip-rule="evenodd"/></svg>