<svg xmlns="http://www.w3.org/2000/svg" width="50" height="50" fill="none"><g clip-path="url(#a)"><path fill="url(#b)" d="M0 12A12 12 0 0 1 12 0h26a12 12 0 0 1 12 12v26a12 12 0 0 1-12 12H12A12 12 0 0 1 0 38V12Z"/><path fill="#fff" fill-rule="evenodd" d="M32.67 14.83a3.25 3.25 0 0 1 3.25 3.25V28.5a3.25 3.25 0 0 1-3.25 3.25H20.65l-3.82 3.83a1.17 1.17 0 0 1-2-.83V18.08a3.25 3.25 0 0 1 3.25-3.25h14.59Zm-14.59 2.34a.92.92 0 0 0-.91.91v13.85l2.17-2.17.09-.08c.2-.17.47-.26.74-.26h12.5a.92.92 0 0 0 .91-.92V18.08a.92.92 0 0 0-.91-.91H18.08Z" clip-rule="evenodd"/><path fill="#fff" fill-rule="evenodd" d="M32.67 14.83a3.25 3.25 0 0 1 3.25 3.25V28.5a3.25 3.25 0 0 1-3.25 3.25H20.65l-3.82 3.83a1.17 1.17 0 0 1-2-.83V18.08a3.25 3.25 0 0 1 3.25-3.25h14.59Zm-15.23 2.6c.17-.17.4-.26.64-.26h14.59a.92.92 0 0 1 .91.91V28.5a.92.92 0 0 1-.91.92h-12.5c-.27 0-.53.1-.74.26l-.09.08-2.17 2.17V18.08c0-.24.1-.47.27-.64Z" clip-rule="evenodd"/></g><defs><linearGradient id="b" x1="50" x2="0" y1="49.98" y2=".02" gradientUnits="userSpaceOnUse"><stop stop-color="#D97706"/><stop offset="1" stop-color="#FBBF24"/></linearGradient><clipPath id="a"><rect width="50" height="50" fill="#fff" rx="12"/></clipPath></defs></svg>