<svg xmlns="http://www.w3.org/2000/svg" width="50" height="50" fill="none"><g clip-path="url(#a)"><path fill="url(#b)" d="M0 12A12 12 0 0 1 12 0h26a12 12 0 0 1 12 12v26a12 12 0 0 1-12 12H12A12 12 0 0 1 0 38V12Z"/><path fill="#fff" d="M22.32 22.62a1.14 1.14 0 0 1 1.11 1.12 1 1 0 0 1-.32.76l-1.61 1.6 1.61 1.6a1 1 0 0 1 .32.76 1.14 1.14 0 0 1-1.11 1.11c-.3.02-.57-.09-.8-.3l-2.4-2.4a1.05 1.05 0 0 1 0-1.54l2.4-2.4c.23-.21.5-.32.8-.3ZM27.68 22.62c.3 0 .57.1.8.32l2.4 2.39a1.05 1.05 0 0 1 0 1.54l-2.4 2.4c-.23.21-.5.32-.8.3a1.14 1.14 0 0 1-1.11-1.1c-.01-.3.1-.55.32-.77l1.61-1.6-1.61-1.6a1 1 0 0 1-.32-.76 1.14 1.14 0 0 1 1.11-1.11Z"/><path fill="#fff" fill-rule="evenodd" d="M25 14a3.3 3.3 0 0 1 3.11 2.2h4.67c.6 0 1.13.22 1.57.65.43.43.65.95.65 1.55v15.4c0 .6-.22 1.12-.65 1.55-.44.43-.96.65-1.57.65H17.22c-.6 0-1.13-.22-1.57-.65A2.1 2.1 0 0 1 15 33.8V18.4c0-.6.22-1.12.65-1.55.44-.43.96-.65 1.57-.65h4.67A3.3 3.3 0 0 1 25 14Zm-7.78 19.8h15.56V18.4H17.22v15.4ZM25 15.92a.82.82 0 0 0-.6.24.8.8 0 0 0-.23.59c0 .24.08.44.23.6.16.15.36.23.6.23s.44-.08.6-.24a.8.8 0 0 0 .23-.59.8.8 0 0 0-.23-.6.82.82 0 0 0-.6-.23Z" clip-rule="evenodd"/></g><defs><linearGradient id="b" x1="50" x2="0" y1="50" y2="0" gradientUnits="userSpaceOnUse"><stop stop-color="#D97706"/><stop offset="1" stop-color="#FBBF24"/></linearGradient><clipPath id="a"><path fill="#fff" d="M0 0h50v50H0z"/></clipPath></defs></svg>