<svg xmlns="http://www.w3.org/2000/svg" width="50" height="50" fill="none"><g clip-path="url(#a)"><path fill="url(#b)" d="M0 12A12 12 0 0 1 12 0h26a12 12 0 0 1 12 12v26a12 12 0 0 1-12 12H12A12 12 0 0 1 0 38V12Z"/><path fill="#fff" fill-rule="evenodd" d="M36 16a2 2 0 0 1 2 2v14a2 2 0 0 1-2 2H14a2 2 0 0 1-2-2V18a2 2 0 0 1 2-2h22Zm-11 8.6L14 18v2.14l11 6.6 11-6.6V18l-11 6.6Z" clip-rule="evenodd"/></g><defs><linearGradient id="b" x1="50" x2="0" y1="50" y2="0" gradientUnits="userSpaceOnUse"><stop stop-color="#E11D48"/><stop offset="1" stop-color="#FB7185"/></linearGradient><clipPath id="a"><path fill="#fff" d="M0 0h50v50H0z"/></clipPath></defs></svg>