<svg xmlns="http://www.w3.org/2000/svg" width="50" height="50" fill="none"><path fill="url(#a)" d="M0 12A12 12 0 0 1 12 0h26a12 12 0 0 1 12 12v26a12 12 0 0 1-12 12H12A12 12 0 0 1 0 38V12Z"/><path fill="#fff" d="M20.3 18.3a1 1 0 1 1 1.4 1.4L16.42 25l5.3 5.3a1 1 0 1 1-1.42 1.4l-6-6a1 1 0 0 1 0-1.4l6-6ZM28.3 18.3a1 1 0 0 1 1.4 0l6 6a1 1 0 0 1 0 1.4l-6 6a1 1 0 1 1-1.4-1.4l5.29-5.3-5.3-5.3a1 1 0 0 1 0-1.4Z"/><defs><linearGradient id="a" x1="50" x2="0" y1="49.65" y2=".35" gradientUnits="userSpaceOnUse"><stop stop-color="#272727"/><stop offset="1" stop-color="#4D4D4D"/></linearGradient></defs></svg>