<svg xmlns="http://www.w3.org/2000/svg" fill="none" viewBox="0 0 50 50"><path fill="currentColor" d="M36.5 20c-1.6 0-3-.4-4.1-1.3-1.1-1-1.9-2.1-2.3-3.5H19.8a6.4 6.4 0 0 1-4.6 4.6v10.3c1.4.4 2.6 1.2 3.5 2.3 1 1.1 1.4 2.5 1.4 4 0 1.9-.7 3.4-2 4.7a6.3 6.3 0 0 1-4.6 1.9c-1.8 0-3.3-.6-4.6-2A6.3 6.3 0 0 1 7 36.6c0-1.6.5-3 1.4-4.1 1-1.1 2-1.9 3.5-2.3V19.8a6.6 6.6 0 0 1-3.5-2.2 6.2 6.2 0 0 1-1.4-4c0-1.9.6-3.4 2-4.7C10.1 7.6 11.6 7 13.4 7c1.6 0 3 .5 4 1.4 1.2 1 2 2 2.3 3.5h10.3a6.6 6.6 0 0 1 2.3-3.5c1.1-1 2.5-1.4 4-1.4 1.9 0 3.4.6 4.7 2 1.3 1.2 1.9 2.7 1.9 4.5 0 1.8-.6 3.4-2 4.7a6.3 6.3 0 0 1-4.5 1.9Zm-23 19.7c1 0 1.7-.3 2.4-1 .6-.6 1-1.4 1-2.2 0-1-.4-1.7-1-2.4-.7-.6-1.5-1-2.4-1-.8 0-1.6.4-2.2 1-.7.7-1 1.5-1 2.4 0 .8.3 1.6 1 2.2.6.7 1.4 1 2.2 1Zm0-22.9c1 0 1.7-.3 2.4-1 .6-.6 1-1.4 1-2.3 0-.9-.4-1.6-1-2.3-.7-.6-1.5-1-2.4-1-.8 0-1.6.4-2.2 1-.7.7-1 1.4-1 2.3 0 1 .3 1.7 1 2.4.6.6 1.4 1 2.2 1Zm23 26.2c-1.8 0-3.4-.6-4.7-2a6.3 6.3 0 0 1-1.9-4.5c0-1.8.7-3.4 2-4.7 1.2-1.3 2.8-1.9 4.6-1.9 1.8 0 3.3.7 4.6 2 1.3 1.2 1.9 2.8 1.9 4.6 0 1.8-.6 3.3-2 4.6a6.3 6.3 0 0 1-4.5 1.9Zm0-3.3c.9 0 1.6-.3 2.3-1 .6-.6 1-1.4 1-2.2 0-1-.4-1.7-1-2.4-.7-.6-1.4-1-2.3-1-1 0-1.7.4-2.4 1-.6.7-1 1.5-1 2.4 0 .8.4 1.6 1 2.2.7.7 1.5 1 2.4 1Zm0-22.9c.9 0 1.6-.3 2.3-1 .6-.6 1-1.4 1-2.3 0-.9-.4-1.6-1-2.3-.7-.6-1.4-1-2.3-1-1 0-1.7.4-2.4 1-.6.7-1 1.4-1 2.3 0 1 .4 1.7 1 2.4.7.6 1.5 1 2.4 1Z"/></svg>