<svg xmlns="http://www.w3.org/2000/svg" width="50" height="50" fill="none"><g clip-path="url(#a)"><path fill="url(#b)" d="M0 12A12 12 0 0 1 12 0h26a12 12 0 0 1 12 12v26a12 12 0 0 1-12 12H12A12 12 0 0 1 0 38V12Z"/><path fill="#fff" fill-rule="evenodd" d="M25 31.16a4.17 4.17 0 1 1 0 8.34 4.17 4.17 0 0 1 0-8.34Zm0 1.67a2.5 2.5 0 1 0 0 5 2.5 2.5 0 0 0 0-5ZM15.83 21.46a4.17 4.17 0 1 1 0 8.34 4.17 4.17 0 0 1 0-8.34Zm0 1.87a2.5 2.5 0 1 0 0 5 2.5 2.5 0 0 0 0-5ZM34.16 21.46a4.17 4.17 0 1 1 0 8.33 4.17 4.17 0 0 1 0-8.33Zm.01 1.87a2.5 2.5 0 1 0 0 5 2.5 2.5 0 0 0 0-5ZM25 12.16a4.17 4.17 0 1 1 0 8.34 4.17 4.17 0 0 1 0-8.34Zm0 1.67a2.5 2.5 0 1 0 0 5 2.5 2.5 0 0 0 0-5Z" clip-rule="evenodd"/></g><defs><linearGradient id="b" x1="50" x2="0" y1="49.65" y2=".35" gradientUnits="userSpaceOnUse"><stop stop-color="#2563EB"/><stop offset="1" stop-color="#38BDF8"/></linearGradient><clipPath id="a"><path fill="#fff" d="M0 0h50v50H0z"/></clipPath></defs></svg>