<svg xmlns="http://www.w3.org/2000/svg" fill="none" viewBox="0 0 50 50"><path fill="#fff" d="M43.2 5.01A2 2 0 0 1 45 7v36l-.01.2A2 2 0 0 1 43.2 45H7a2 2 0 0 1-1.99-1.8L5 43V7c0-1.1.9-2 2-2h36l.2.01ZM8 42h34V8H8v34Zm15-16a1 1 0 0 1 1 1v11a1 1 0 0 1-1 1H12a1 1 0 0 1-1-1V27a1 1 0 0 1 1-1h11Zm15 0a1 1 0 0 1 1 1v11a1 1 0 0 1-1 1H27a1 1 0 0 1-1-1V27a1 1 0 0 1 1-1h11ZM23 11a1 1 0 0 1 1 1v11a1 1 0 0 1-1 1H12a1 1 0 0 1-1-1V12a1 1 0 0 1 1-1h11Zm15 0a1 1 0 0 1 1 1v11a1 1 0 0 1-1 1H27a1 1 0 0 1-1-1V12a1 1 0 0 1 1-1h11Z"/></svg>