<svg xmlns="http://www.w3.org/2000/svg" fill="none" viewBox="0 0 50 50"><path fill="#FBB945" fill-rule="evenodd" d="M23.3 28c-.5-.4-1-.8-1.2-1.3h-8.5c-3.7 0-7 2-8.6 5.2 2.1 6.1 7 11 13.1 13.1 3.1-1.6 5.2-4.9 5.2-8.6V28Z" clip-rule="evenodd"/><path fill="#1AD3BB" fill-rule="evenodd" d="M45 31.9a9.7 9.7 0 0 0-8.6-5.2H28c-.3.5-.7 1-1.2 1.2v8.5c0 3.7 2 7 5.2 8.6 6.1-2.1 11-7 13.1-13.1Z" clip-rule="evenodd"/><path fill="#D32F2F" fill-rule="evenodd" d="M5 18.1c1.6 3.1 4.9 5.2 8.6 5.2H22c.3-.5.7-1 1.2-1.2v-8.5c0-3.7-2-7-5.2-8.6C12 7.1 7.1 12 5 18.1Z" clip-rule="evenodd"/><path fill="#4ADF52" fill-rule="evenodd" d="M31.9 5c6.1 2.1 11 7 13.1 13.1a9.7 9.7 0 0 1-8.6 5.2H28c-.3-.5-.7-1-1.2-1.2v-8.5c0-3.7 2-7 5.2-8.6Z" clip-rule="evenodd"/></svg>