<svg xmlns="http://www.w3.org/2000/svg" width="50" height="50" fill="none"><g clip-path="url(#a)"><path fill="url(#b)" d="M0 12A12 12 0 0 1 12 0h26a12 12 0 0 1 12 12v26a12 12 0 0 1-12 12H12A12 12 0 0 1 0 38V12Z"/><path fill="#fff" fill-rule="evenodd" d="M23.17 25.67c.64 0 1.16.52 1.16 1.16V35c0 .64-.52 1.17-1.16 1.17H15c-.64 0-1.17-.53-1.17-1.17v-8.17c0-.64.53-1.16 1.17-1.16h8.17Zm-7 8.16H22V28h-5.83v5.83ZM36 25.67c.64 0 1.17.52 1.17 1.16V35c0 .64-.53 1.17-1.17 1.17h-8.17c-.64 0-1.16-.53-1.16-1.17v-8.17c0-.64.52-1.16 1.16-1.16H36Zm-7 8.16h5.83V28H29v5.83ZM23.17 12.83c.64 0 1.16.53 1.16 1.17v8.17c0 .64-.52 1.16-1.16 1.16H15c-.64 0-1.17-.52-1.17-1.16V14c0-.64.53-1.17 1.17-1.17h8.17Zm-7 8.17H22v-5.83h-5.83V21ZM36 12.83c.64 0 1.17.53 1.17 1.17v8.17c0 .64-.53 1.16-1.17 1.16h-8.17c-.64 0-1.16-.52-1.16-1.16V14c0-.64.52-1.17 1.16-1.17H36ZM29 21h5.83v-5.83H29V21Z" clip-rule="evenodd"/></g><defs><linearGradient id="b" x1="50" x2="0" y1="49.65" y2=".35" gradientUnits="userSpaceOnUse"><stop stop-color="#7C3AED"/><stop offset="1" stop-color="#C084FC"/></linearGradient><clipPath id="a"><rect width="50" height="50" fill="#fff" rx="12"/></clipPath></defs></svg>