<svg xmlns="http://www.w3.org/2000/svg" width="50" height="50" fill="none"><g clip-path="url(#a)"><path fill="url(#b)" d="M0 12A12 12 0 0 1 12 0h26a12 12 0 0 1 12 12v26a12 12 0 0 1-12 12H12A12 12 0 0 1 0 38V12Z"/><path fill="#fff" d="M26 26.83a5.83 5.83 0 0 1 5.83 5.84V35a1.17 1.17 0 1 1-2.33 0v-2.33a3.5 3.5 0 0 0-3.33-3.5h-9.5a3.5 3.5 0 0 0-3.5 3.5V35a1.17 1.17 0 0 1-2.34 0v-2.33a5.83 5.83 0 0 1 5.84-5.84H26ZM33.04 27.86c.16-.62.8-1 1.42-.84a5.83 5.83 0 0 1 4.37 5.65V35a1.17 1.17 0 1 1-2.33 0v-2.33l-.01-.3a3.5 3.5 0 0 0-2.62-3.09c-.62-.16-1-.8-.83-1.42Z"/><path fill="#fff" fill-rule="evenodd" d="M21.33 12.83a5.83 5.83 0 1 1 0 11.67 5.83 5.83 0 0 1 0-11.67Zm0 2.34a3.5 3.5 0 1 0 0 7 3.5 3.5 0 0 0 0-7Z" clip-rule="evenodd"/><path fill="#fff" d="M28.37 13.86c.16-.62.8-1 1.42-.84a5.83 5.83 0 0 1 0 11.3 1.17 1.17 0 1 1-.58-2.26 3.5 3.5 0 0 0 0-6.78c-.62-.16-1-.8-.84-1.42Z"/></g><defs><linearGradient id="b" x1="50" x2="0" y1="49.65" y2=".35" gradientUnits="userSpaceOnUse"><stop stop-color="#059669"/><stop offset="1" stop-color="#4ADE80"/></linearGradient><clipPath id="a"><rect width="50" height="50" fill="#fff" rx="12"/></clipPath></defs></svg>