<svg xmlns="http://www.w3.org/2000/svg" width="50" height="50" fill="none"><path fill="#E7B44A" d="M22.125 23.652a3.383 3.383 0 0 1 3.375-3.391h10.125A3.383 3.383 0 0 1 39 23.652v8.478c0 4.683-3.778 8.479-8.438 8.479s-8.437-3.796-8.437-8.479v-8.478Z"/><path fill="#F5D77F" d="M12 27.044a3.383 3.383 0 0 1 3.375-3.392H25.5a3.383 3.383 0 0 1 3.375 3.392v8.478c0 4.682-3.778 8.478-8.438 8.478S12 40.204 12 35.522v-8.478Z"/><path fill="#E7B44A" d="M37.313 11.783c0 3.745-3.023 6.782-6.75 6.782-3.728 0-6.75-3.037-6.75-6.782 0-3.746 3.022-6.783 6.75-6.783 3.727 0 6.75 3.037 6.75 6.783Z"/><path fill="#C59A36" d="M37.313 11.783c0 3.745-3.023 0-6.75 0-3.728 0-6.75 3.745-6.75 0 0-3.746 3.022-6.783 6.75-6.783 3.727 0 6.75 3.037 6.75 6.783Z"/><path fill="#F5D77F" d="M27.188 13.478c0 3.746-3.023 6.783-6.75 6.783-3.728 0-6.75-3.037-6.75-6.783 0-3.746 3.022-6.782 6.75-6.782 3.727 0 6.75 3.036 6.75 6.782Z"/><path fill="#E7B44A" d="M27.188 13.478c0 3.746-3.023 0-6.75 0-3.728 0-6.75 3.746-6.75 0s3.022-6.782 6.75-6.782c3.727 0 6.75 3.036 6.75 6.782Z"/></svg>