<svg xmlns="http://www.w3.org/2000/svg" width="50" height="50" fill="none"><g clip-path="url(#a)"><path fill="url(#b)" d="M0 12A12 12 0 0 1 12 0h26a12 12 0 0 1 12 12v26a12 12 0 0 1-12 12H12A12 12 0 0 1 0 38V12Z"/><path fill="#fff" d="M18.75 21.25c.35 0 .65.12.9.36.23.24.35.54.35.89v11.25c0 .35-.12.65-.36.9a1.2 1.2 0 0 1-.89.35h-2.5a1.2 1.2 0 0 1-.9-.36 1.2 1.2 0 0 1-.35-.89V22.5c0-.35.12-.65.36-.9.24-.23.54-.35.89-.35h2.5ZM26.25 15c.35 0 .65.12.9.36.23.24.35.54.35.89v17.5c0 .35-.12.65-.36.9a1.2 1.2 0 0 1-.89.35h-2.5a1.2 1.2 0 0 1-.9-.36 1.2 1.2 0 0 1-.35-.89v-17.5c0-.35.12-.65.36-.9.24-.23.54-.35.89-.35h2.5ZM33.75 26.25c.35 0 .65.12.9.36.23.24.35.54.35.89v6.25c0 .35-.12.65-.36.9a1.2 1.2 0 0 1-.89.35h-2.5a1.2 1.2 0 0 1-.9-.36 1.2 1.2 0 0 1-.35-.89V27.5c0-.35.12-.65.36-.9.24-.23.54-.35.89-.35h2.5Z"/></g><defs><linearGradient id="b" x1="50" x2="0" y1="49.65" y2=".35" gradientUnits="userSpaceOnUse"><stop stop-color="#10B981"/><stop offset="1" stop-color="#34D399"/></linearGradient><clipPath id="a"><path fill="#fff" d="M0 0h50v50H0z"/></clipPath></defs></svg>