<svg xmlns="http://www.w3.org/2000/svg" width="50" height="50" fill="none"><g clip-path="url(#a)"><path fill="url(#b)" d="M0 12A12 12 0 0 1 12 0h26a12 12 0 0 1 12 12v26a12 12 0 0 1-12 12H12A12 12 0 0 1 0 38V12Z"/><path fill="#fff" fill-rule="evenodd" d="M25 13c.3 0 .58.05.88.15l7.5 2.7c.47.19.86.48 1.17.88.3.4.45.85.45 1.35v5.68c0 2.8-.83 5.43-2.5 7.86a12.58 12.58 0 0 1-7.1 5.1 2.56 2.56 0 0 1-1.18-.09 12.58 12.58 0 0 1-6.72-5 13.66 13.66 0 0 1-2.5-7.87v-5.68c0-.5.15-.95.45-1.35.3-.4.7-.7 1.18-.87l7.5-2.71c.29-.1.58-.15.87-.15Zm0 9a3 3 0 1 0 0 6 3 3 0 0 0 0-6Z" clip-rule="evenodd"/></g><defs><linearGradient id="b" x1="50" x2="0" y1="50" y2="0" gradientUnits="userSpaceOnUse"><stop stop-color="#4338CA"/><stop offset="1" stop-color="#6366F1"/></linearGradient><clipPath id="a"><path fill="#fff" d="M0 0h50v50H0z"/></clipPath></defs></svg>