<svg xmlns="http://www.w3.org/2000/svg" fill="none" viewBox="0 0 50 50"><g fill-rule="evenodd" clip-path="url(#a)" clip-rule="evenodd"><path fill="#2E7D32" d="M9.5 13.7A3 3 0 0 0 8 16.3v16.5c0 .5.1 1 .4 1.5l10.4-6A7.5 7.5 0 0 1 25.3 17V5a3 3 0 0 0-1.5.4L9.5 13.7Z"/><path fill="#F78613" d="M21.6 31a7.5 7.5 0 0 1-2.8-2.7l-10.4 6c.3.5.6.8 1.1 1.1l14.3 8.3c1 .5 2 .5 3 0l14.3-8.3a3 3 0 0 0 1.1-1.1l-10.4-6A7.5 7.5 0 0 1 21.6 31Z"/><path fill="#D32F2F" d="m26.8 5.4 14.3 8.3a3 3 0 0 1 1.5 2.6v16.5c0 .5-.1 1-.4 1.5l-10.4-6A7.5 7.5 0 0 0 25.3 17V5c.5 0 1 .1 1.5.4Z"/></g><defs><clipPath id="a"><path fill="#fff" d="M0 0h50v50H0z"/></clipPath></defs></svg>