<svg xmlns="http://www.w3.org/2000/svg" width="50" height="50" fill="none"><g clip-path="url(#a)"><path fill="url(#b)" d="M0 12A12 12 0 0 1 12 0h26a12 12 0 0 1 12 12v26a12 12 0 0 1-12 12H12A12 12 0 0 1 0 38V12Z"/><path fill="#fff" fill-rule="evenodd" d="M33.47 28.33a1.92 1.92 0 0 0 .38 2.13l.07.07a2.33 2.33 0 1 1-3.3 3.3l-.07-.07a1.93 1.93 0 0 0-2.12-.39 1.93 1.93 0 0 0-1.17 1.77v.2a2.33 2.33 0 1 1-4.67 0v-.11a1.92 1.92 0 0 0-1.26-1.76 1.92 1.92 0 0 0-2.12.38l-.07.07a2.33 2.33 0 1 1-3.3-3.3l.07-.07a1.92 1.92 0 0 0 .38-2.12 1.92 1.92 0 0 0-1.76-1.17h-.2a2.33 2.33 0 1 1 0-4.67h.1a1.92 1.92 0 0 0 1.77-1.26 1.93 1.93 0 0 0-.38-2.12l-.08-.07a2.33 2.33 0 1 1 3.3-3.3l.08.07a1.92 1.92 0 0 0 2.12.38h.1a1.92 1.92 0 0 0 1.16-1.76v-.2a2.33 2.33 0 1 1 4.67 0v.1a1.92 1.92 0 0 0 1.16 1.77 1.93 1.93 0 0 0 2.13-.38l.07-.08a2.33 2.33 0 1 1 3.3 3.3l-.07.08a1.93 1.93 0 0 0-.39 2.12v.1a1.93 1.93 0 0 0 1.77 1.16h.2a2.33 2.33 0 1 1 0 4.67h-.11a1.92 1.92 0 0 0-1.76 1.16Zm-8.64 0a3.5 3.5 0 1 0 0-7 3.5 3.5 0 0 0 0 7Z" clip-rule="evenodd"/></g><defs><linearGradient id="b" x1="50" x2="0" y1="49.65" y2=".35" gradientUnits="userSpaceOnUse"><stop stop-color="#B91C1C"/><stop offset="1" stop-color="#F87171"/></linearGradient><clipPath id="a"><rect width="50" height="50" fill="#fff" rx="12"/></clipPath></defs></svg>