<svg xmlns="http://www.w3.org/2000/svg" width="50" height="50" fill="none"><g clip-path="url(#a)"><path fill="url(#b)" d="M0 12A12 12 0 0 1 12 0h26a12 12 0 0 1 12 12v26a12 12 0 0 1-12 12H12A12 12 0 0 1 0 38V12Z"/><path fill="#fff" d="M20.52 23.33c.29 0 .54.11.75.33l2.3 2.34a1.04 1.04 0 0 1 0 1.5l-2.3 2.34a1.02 1.02 0 0 1-1.5 0 1.04 1.04 0 0 1-.33-.75c0-.29.11-.54.32-.75l1.56-1.59-1.56-1.59a1.04 1.04 0 0 1-.32-.75c0-.29.11-.54.32-.75.21-.22.46-.33.76-.33ZM29.48 23.33c.3 0 .55.11.76.33a1.04 1.04 0 0 1 0 1.5l-1.56 1.59 1.56 1.59a1.04 1.04 0 0 1 0 1.5c-.21.22-.46.33-.76.33-.29 0-.54-.11-.75-.33l-2.3-2.34a1.04 1.04 0 0 1-.32-.75c0-.29.1-.54.32-.75l2.3-2.34c.21-.22.46-.33.75-.33Z"/><path fill="#fff" fill-rule="evenodd" d="M32.78 15c.6 0 1.13.22 1.57.65.43.44.65.96.65 1.57v15.56c0 .6-.22 1.13-.65 1.57-.44.43-.96.65-1.57.65H17.22c-.6 0-1.13-.22-1.57-.65a2.14 2.14 0 0 1-.65-1.57V17.22c0-.6.22-1.13.65-1.57.44-.43.96-.65 1.57-.65h15.56ZM17.22 32.78h15.56V20.56H17.22v12.22Z" clip-rule="evenodd"/></g><defs><linearGradient id="b" x1="50" x2="0" y1="49.65" y2=".35" gradientUnits="userSpaceOnUse"><stop stop-color="#272727"/><stop offset="1" stop-color="#4D4D4D"/></linearGradient><clipPath id="a"><path fill="#fff" d="M0 0h50v50H0z"/></clipPath></defs></svg>