<svg xmlns="http://www.w3.org/2000/svg" width="17" height="13" fill="none"><path fill="currentColor" d="M4.555 12h-.94a1.76 1.76 0 0 1-1.26-.537 1.86 1.86 0 0 1-.522-1.296v-4.39c0-.487.188-.953.522-1.297a1.76 1.76 0 0 1 1.26-.537h.94zM10.94 1c.249 0 .488.101.664.282a.98.98 0 0 1 .274.683V12H10V9.54c0-.41-.158-.802-.439-1.092a1.49 1.49 0 0 0-1.063-.452c-.398 0-.78.163-1.062.452-.281.29-.44.682-.44 1.091V12H5.12V1.965c0-.256.1-.502.275-.683A.93.93 0 0 1 6.057 1zM8.497 8.575c.249 0 .489.101.665.282a.98.98 0 0 1 .274.682V12H7.558V9.54c0-.256.1-.502.275-.683a.93.93 0 0 1 .664-.282m4.882-6.513c.473 0 .927.193 1.261.537.334.343.522.81.523 1.296v6.272c0 .486-.188.952-.523 1.296a1.76 1.76 0 0 1-1.26.537h-.94V2.062zM7.277 5.487a.285.285 0 0 0-.281.29c0 .16.126.288.28.288h2.442c.156 0 .281-.129.281-.289a.285.285 0 0 0-.28-.289zm0-2.51a.287.287 0 0 0-.281.29c0 .16.126.29.28.29h2.442c.155 0 .281-.13.281-.29s-.126-.29-.28-.29z"/></svg>