<svg xmlns="http://www.w3.org/2000/svg" width="17" height="13" fill="none"><path fill="currentColor" d="M8.499 7.001a3.96 3.96 0 0 1 1.836.448 3.75 3.75 0 0 1 1.383 1.234 1.983 1.983 0 0 1 2.035-.07c.312.173.566.426.733.731s.24.649.21.992a6.05 6.05 0 0 1-2.38.29v.018q0 .205-.023.405h-.002v.004A8 8 0 0 1 8.497 12a8 8 0 0 1-3.793-.947 3 3 0 0 1-.025-.416v-.011a6 6 0 0 1-2.375-.29 1.75 1.75 0 0 1 .21-.99c.167-.305.421-.56.732-.732a1.98 1.98 0 0 1 2.036.07c.345-.516.82-.941 1.382-1.235A3.96 3.96 0 0 1 8.499 7M4.206 3.277c.53 0 1.038.202 1.412.559.373.356.582.84.582 1.343 0 .249-.05.497-.15.727s-.247.44-.432.617a2 2 0 0 1-.648.413 2.09 2.09 0 0 1-1.529 0 2 2 0 0 1-.647-.413 1.9 1.9 0 0 1-.432-.617 1.83 1.83 0 0 1 .432-2.07 2.05 2.05 0 0 1 1.412-.559M12.794 3.277c.53 0 1.038.202 1.412.559s.584.84.584 1.343c0 .249-.052.496-.152.727a1.9 1.9 0 0 1-.432.617 2 2 0 0 1-.647.413 2.09 2.09 0 0 1-1.53 0 2 2 0 0 1-.647-.413 1.9 1.9 0 0 1-.431-.617 1.83 1.83 0 0 1 .431-2.07 2.05 2.05 0 0 1 1.412-.559M8.5 1c.656 0 1.286.25 1.749.691.463.443.724 1.043.724 1.667s-.26 1.223-.724 1.665a2.54 2.54 0 0 1-1.749.691c-.656 0-1.286-.249-1.749-.691a2.3 2.3 0 0 1-.724-1.665c0-.625.26-1.224.724-1.667A2.54 2.54 0 0 1 8.5 1"/></svg>