<svg xmlns="http://www.w3.org/2000/svg" width="17" height="13" fill="none"><path fill="#E7B44A" d="M7.5 6.5a1 1 0 0 1 1-1h3a1 1 0 0 1 1 1V9a2.5 2.5 0 0 1-5 0V6.5Z"/><path fill="#F5D77F" d="M4.5 7.5a1 1 0 0 1 1-1h3a1 1 0 0 1 1 1V10a2.5 2.5 0 0 1-5 0V7.5Z"/><path fill="#E7B44A" d="M12 3a2 2 0 1 1-4 0 2 2 0 0 1 4 0Z"/><path fill="#C59A36" d="M12 3c0 1.105-.895 0-2 0S8 4.105 8 3a2 2 0 1 1 4 0Z"/><path fill="#F5D77F" d="M9 3.5a2 2 0 1 1-4 0 2 2 0 0 1 4 0Z"/><path fill="#E7B44A" d="M9 3.5c0 1.105-.895 0-2 0s-2 1.105-2 0a2 2 0 1 1 4 0Z"/></svg>