<svg xmlns="http://www.w3.org/2000/svg" width="17" height="13" fill="none"><path fill="currentColor" d="M11.16 8.04q.32.28.56.64a1.97 1.97 0 0 1 2.77.66q.25.46.2 1-1.16.38-2.37.29v.01q0 .21-.03.4v.01a8 8 0 0 1-7.59 0l-.02-.41v-.01q-1.21.09-2.38-.3-.04-.52.21-.99.26-.46.74-.73a2 2 0 0 1 2.03.07q.24-.34.55-.64v1.3c0 .57.47 1.03 1.04 1.03h3.25c.58 0 1.04-.46 1.04-1.04z"/><path fill="currentColor" fill-rule="evenodd" d="M8.5 4.63a1.46 1.46 0 0 1 1.46 1.45v1.09h.17c.3 0 .54.24.54.54v1.62c0 .3-.24.54-.54.54H6.88a.54.54 0 0 1-.55-.54V7.71c0-.3.25-.54.55-.54h.16V6.08A1.46 1.46 0 0 1 8.5 4.63m0 .75a.7.7 0 0 0-.7.7v1.09H9.2V6.08a.7.7 0 0 0-.7-.7" clip-rule="evenodd"/><path fill="currentColor" d="M4.2 3.28c.54 0 1.04.2 1.42.56a1.9 1.9 0 0 1 .43 2.07 2 2 0 0 1-1.08 1.03 2.1 2.1 0 0 1-2.18-.42 2 2 0 0 1-.58-1.34c0-.5.21-.99.58-1.34.38-.36.89-.56 1.42-.56M12.8 3.28c.52 0 1.03.2 1.4.56a1.9 1.9 0 0 1 .44 2.07 2 2 0 0 1-1.08 1.03 2.1 2.1 0 0 1-2.18-.42 2 2 0 0 1-.58-1.34c0-.5.2-.99.58-1.34s.88-.56 1.41-.56M8.5 1c.66 0 1.29.25 1.75.7.46.43.72 1.03.72 1.66a2.3 2.3 0 0 1-.72 1.66l-.07.06a2 2 0 0 0-1.68-.95 2 2 0 0 0-1.68.95l-.07-.06a2.3 2.3 0 0 1-.72-1.66c0-.63.26-1.23.72-1.67S7.85 1 8.5 1"/></svg>