<svg xmlns="http://www.w3.org/2000/svg" width="17" height="13" fill="none"><g fill-rule="evenodd" clip-path="url(#a)" clip-rule="evenodd"><path fill="#2E7D32" d="M3.8 3.39a.89.89 0 0 0-.44.77v4.92c0 .16.05.31.13.44l3.1-1.78A2.23 2.23 0 0 1 8.52 4.4V.82a.9.9 0 0 0-.45.11L3.8 3.4Z"/><path fill="#F78613" d="M7.41 8.56c-.35-.2-.63-.5-.82-.82l-3.1 1.78a.9.9 0 0 0 .32.33l4.28 2.47a.9.9 0 0 0 .9 0l4.26-2.45c.13-.08.25-.2.32-.33l-3.1-1.8a2.23 2.23 0 0 1-3.06.82Z"/><path fill="#D32F2F" d="m8.96.94 4.27 2.46a.9.9 0 0 1 .45.78l.01 4.92c0 .16-.04.3-.12.44l-3.1-1.8A2.23 2.23 0 0 0 8.51 4.4V.82c.15 0 .3.04.44.12Z"/></g><defs><clipPath id="a"><path fill="#fff" d="M0 0h17v13H0z"/></clipPath></defs></svg>