<svg xmlns="http://www.w3.org/2000/svg" width="17" height="13" fill="none"><path fill="currentColor" d="M13.67 1.6c.14 0 .25.11.26.25l.12 3.36c0 .32-.1.62-.3.86L8.7 11.92a.25.25 0 0 1-.35.02.25.25 0 0 1-.03-.35l5.04-5.85a.75.75 0 0 0 .18-.51l-.12-3.36c0-.14.1-.26.24-.26ZM11.71 1a1 1 0 0 1 1.11.97l.1 3.06a1 1 0 0 1-.23.69l-4.83 5.6-.07.07a1 1 0 0 1-1.26.1l-.08-.07 5.48-6.36-.1-3.06-3.05.35-4.83 5.6 3.15 2.72-.65.75-3.15-2.7-.08-.08A1 1 0 0 1 3.2 7.3l4.83-5.6a1 1 0 0 1 .55-.33l.1-.01L11.7 1Zm-1.07 1.53c.45 0 .81.34.86.78v.08a.87.87 0 0 1-1.73 0v-.08a.87.87 0 0 1 .87-.78Zm0 .5a.37.37 0 1 0 0 .73.37.37 0 0 0 0-.73Z"/></svg>