<svg xmlns="http://www.w3.org/2000/svg" width="17" height="13" fill="none"><path fill="currentColor" d="M6.123 7.282a3.69 3.69 0 0 1 4.161 1.807 2.394 2.394 0 0 1 2.73-.929 2.394 2.394 0 0 1 1.64 2.378 5.429 5.429 0 0 1-3.913.337v.063a7.13 7.13 0 0 1-3.699 1.026 7.13 7.13 0 0 1-3.696-1.027l-.001-.063a3.698 3.698 0 0 1 2.778-3.592m6.14-4.538a2.024 2.024 0 0 1 2.023 2.026 2.023 2.023 0 1 1-3.453-1.432c.38-.38.894-.594 1.43-.594M7.044 1a2.46 2.46 0 0 1 2.458 2.462 2.458 2.458 0 0 1-2.458 2.462 2.464 2.464 0 0 1-1.737-4.202A2.46 2.46 0 0 1 7.043 1"/></svg>