<svg xmlns="http://www.w3.org/2000/svg" fill="none" viewBox="0 0 232 137"><g clip-path="url(#a)"><path fill="#FF6C6C" fill-opacity=".75" stroke="#FF6C6C" stroke-width="5" d="M10 2.5h212a7.5 7.5 0 0 1 7.5 7.5v117a7.5 7.5 0 0 1-7.5 7.5H10a7.5 7.5 0 0 1-7.5-7.5V10A7.5 7.5 0 0 1 10 2.5Z"/><path fill="#303030" stroke="#373737" stroke-width="4" d="M227.79 47h-23.47a2 2 0 0 0-2 2v38c0 1.1.9 2 2 2h23.47a2 2 0 0 0 2-2V49a2 2 0 0 0-2-2Z"/><path fill="#232323" d="M216.15 72.47a8.16 8.16 0 1 0 0-16.32 8.16 8.16 0 0 0 0 16.32Z"/><path fill="#fff" d="m217.76 67.7-.23-.15a2.7 2.7 0 0 0-.59-.29 2.02 2.02 0 0 0-1.49 0 3.15 3.15 0 0 0-.82.44c-.07 0-.25-.15-.54-.44-.3-.29-.44-.47-.44-.54 0-.05.02-.1.06-.13a3.85 3.85 0 0 1 2.49-.96 3.85 3.85 0 0 1 2.49.96c.03.04.06.08.06.13 0 .07-.15.25-.44.54-.3.3-.48.44-.55.44Zm1.59-1.58a.24.24 0 0 1-.13-.05c-.53-.4-1.02-.7-1.47-.9a3.94 3.94 0 0 0-2.54-.15 4.58 4.58 0 0 0-1.52.66 6.16 6.16 0 0 0-.64.44c-.07 0-.25-.15-.54-.44-.29-.29-.43-.47-.43-.54 0-.04.02-.08.06-.12a6.05 6.05 0 0 1 6.26-1.19 5.3 5.3 0 0 1 1.86 1.19c.04.04.06.08.06.12 0 .07-.15.25-.44.54-.29.3-.47.44-.53.44Zm1.57-1.57a.2.2 0 0 1-.13-.06 7.8 7.8 0 0 0-2.15-1.37 6.32 6.32 0 0 0-2.44-.46c-.88 0-1.7.16-2.44.46a7.8 7.8 0 0 0-2.16 1.37.2.2 0 0 1-.12.06c-.07 0-.25-.15-.54-.44-.3-.29-.44-.47-.44-.54 0-.05.02-.1.06-.13a8.25 8.25 0 0 1 8.7-1.67c1 .4 1.85.95 2.58 1.67.04.04.06.08.06.13 0 .07-.15.25-.44.54-.3.3-.47.44-.54.44Z"/><path fill="#57E888" d="M218.88 78.23h-4.84a.8.8 0 1 0 0 1.61h4.84a.8.8 0 1 0 0-1.61Z"/><path fill="#fff" d="M94.81 89.7c4.82 0 7.23 1.5 7.23 4.47 0 1.76-1 3.11-3 4.07l5.16 6.6h-5.44L95 99.33h-1.2v5.5H89V89.7h5.81Zm21.48 3.28h-5.76v2.9h5.31v3.27h-5.31v5.69h-4.72V89.7h10.48v3.28Zm7.73 11.86h-4.82V89.7h4.82v15.14ZM134 89.7c2.84 0 5.04.62 6.59 1.87 1.55 1.24 2.32 3.03 2.32 5.38 0 2.52-.81 4.47-2.45 5.84-1.62 1.36-3.91 2.05-6.86 2.05h-5.74V89.7H134Zm-1.35 11.78h1.07c1.46 0 2.52-.36 3.2-1.08.68-.72 1.02-1.82 1.02-3.3 0-1.4-.32-2.42-.97-3.1-.64-.66-1.61-1-2.92-1h-1.4v8.48ZM93.8 96.25h.9c1.67 0 2.5-.63 2.5-1.89 0-1.04-.81-1.56-2.45-1.56h-.95v3.45ZM66.11 35.2c1.28-3.05 8.44.35 7.25 3.13a42.2 42.2 0 0 0-2.65 8.62 47.83 47.83 0 0 0 0 18.41c.6 3 1.45 5.83 2.65 8.62 1.2 2.79-5.97 6.18-7.25 3.13A53.64 53.64 0 0 1 62 56.16a53.64 53.64 0 0 1 4.11-20.95Zm92.15 3.13c-1.2-2.78 5.97-6.18 7.25-3.13a53.7 53.7 0 0 1 4.11 20.96 53.7 53.7 0 0 1-4.11 20.95c-1.28 3.05-8.44-.34-7.25-3.13a42.21 42.21 0 0 0 2.65-8.62 48.39 48.39 0 0 0 0-18.4 42.69 42.69 0 0 0-2.65-8.63ZM78.84 40.5c1.18-2.63 8.35.57 7.25 2.94-1.1 2.36-1.57 4-1.96 6.12-.4 2.12-.59 4.32-.59 6.6 0 2.3.2 4.5.59 6.62.4 2.12.86 3.75 1.96 6.12 1.1 2.36-6.07 5.57-7.25 2.93a32.96 32.96 0 0 1-2.4-7.63 43.48 43.48 0 0 1-.73-8.03c0-2.75.24-5.42.73-8.03.5-2.61 1.22-5 2.4-7.64Zm66.7 2.94c-1.1-2.37 6.06-5.57 7.24-2.94a32.95 32.95 0 0 1 2.4 7.64c.49 2.6.73 5.28.73 8.03 0 2.74-.24 5.41-.73 8.03-.5 2.6-1.22 5-2.4 7.63-1.18 2.64-8.35-.57-7.25-2.93a23 23 0 0 0 1.96-6.12c.4-2.13.59-4.33.59-6.61 0-2.29-.2-4.5-.59-6.61a22.53 22.53 0 0 0-1.96-6.12Zm-29.8-1.23a13.66 13.66 0 0 1 13.62 13.63v.35a13.68 13.68 0 0 1-27.36-.25 13.61 13.61 0 0 1 13.73-13.73Zm-24.36 3.58c.82-2.22 7.92.9 7.24 2.93-.68 2.04-.72 2.39-.98 3.63a18.5 18.5 0 0 0 0 7.63c.26 1.24.3 1.6.98 3.63.68 2.03-6.42 5.15-7.25 2.94a27.5 27.5 0 0 1-1.41-4.95 26.69 26.69 0 0 1-.54-5.43c0-1.9.18-3.7.54-5.44a27.5 27.5 0 0 1 1.42-4.94ZM133 48.7c-.68-2.03 6.42-5.15 7.25-2.93a27.47 27.47 0 0 1 1.42 4.94c.36 1.73.53 3.54.53 5.44 0 1.89-.17 3.7-.53 5.43a27.47 27.47 0 0 1-1.42 4.95c-.83 2.2-7.93-.9-7.25-2.94.68-2.04.72-2.39.98-3.63a18.42 18.42 0 0 0 0-7.63c-.26-1.24-.3-1.59-.98-3.63Z"/></g><defs><clipPath id="a"><path fill="#fff" d="M0 0h232v137H0z"/></clipPath></defs></svg>