<svg xmlns="http://www.w3.org/2000/svg" fill="none" viewBox="0 0 232 137"><g clip-path="url(#a)"><path fill="#FF6C6C" fill-opacity=".75" stroke="#FF6C6C" stroke-width="5" d="M10 2.5h212a7.5 7.5 0 0 1 7.5 7.5v117a7.5 7.5 0 0 1-7.5 7.5H10a7.5 7.5 0 0 1-7.5-7.5V10A7.5 7.5 0 0 1 10 2.5Z"/><mask id="b" width="204" height="35" x="14" y="51" maskUnits="userSpaceOnUse" style="mask-type:luminance"><path fill="#fff" d="M214 51H18a4 4 0 0 0-4 4v27a4 4 0 0 0 4 4h196a4 4 0 0 0 4-4V55a4 4 0 0 0-4-4Z"/></mask><g mask="url(#b)"><path fill="#fff" d="M214 51H18a4 4 0 0 0-4 4v27a4 4 0 0 0 4 4h196a4 4 0 0 0 4-4V55a4 4 0 0 0-4-4Z"/><path fill="#FFDBDB" d="M46 55.5H28a4 4 0 0 0-4 4v18a4 4 0 0 0 4 4h18a4 4 0 0 0 4-4v-18a4 4 0 0 0-4-4Z"/><path fill="#FF6C6C" fill-opacity=".2" d="M99.5 58.5h-36a3.5 3.5 0 1 0 0 7h36a3.5 3.5 0 1 0 0-7Zm92 0h-81a3.5 3.5 0 1 0 0 7h81a3.5 3.5 0 1 0 0-7Zm-83 13h-45a3.5 3.5 0 1 0 0 7h45a3.5 3.5 0 1 0 0-7Zm45 0h-28a3.5 3.5 0 1 0 0 7h28a3.5 3.5 0 1 0 0-7Z"/></g><mask id="c" width="204" height="35" x="14" y="90" maskUnits="userSpaceOnUse" style="mask-type:luminance"><path fill="#fff" d="M214 90H18a4 4 0 0 0-4 4v27a4 4 0 0 0 4 4h196a4 4 0 0 0 4-4V94a4 4 0 0 0-4-4Z"/></mask><g mask="url(#c)"><path fill="#fff" d="M214 90H18a4 4 0 0 0-4 4v27a4 4 0 0 0 4 4h196a4 4 0 0 0 4-4V94a4 4 0 0 0-4-4Z"/><path fill="#FF6C6C" fill-opacity=".75" d="M46 94.5H28a4 4 0 0 0-4 4v18a4 4 0 0 0 4 4h18a4 4 0 0 0 4-4v-18a4 4 0 0 0-4-4Z"/><path fill="#FF6C6C" fill-opacity=".2" d="M99.5 97.5h-36a3.5 3.5 0 1 0 0 7h36a3.5 3.5 0 1 0 0-7Zm92 0h-81a3.5 3.5 0 1 0 0 7h81a3.5 3.5 0 1 0 0-7Zm-83 13h-45a3.5 3.5 0 1 0 0 7h45a3.5 3.5 0 1 0 0-7Zm45 0h-28a3.5 3.5 0 1 0 0 7h28a3.5 3.5 0 1 0 0-7Z"/></g><mask id="d" width="204" height="35" x="14" y="12" maskUnits="userSpaceOnUse" style="mask-type:luminance"><path fill="#fff" d="M214 12H18a4 4 0 0 0-4 4v27a4 4 0 0 0 4 4h196a4 4 0 0 0 4-4V16a4 4 0 0 0-4-4Z"/></mask><g mask="url(#d)"><path fill="#fff" d="M214 12H18a4 4 0 0 0-4 4v27a4 4 0 0 0 4 4h196a4 4 0 0 0 4-4V16a4 4 0 0 0-4-4Z"/><path fill="#FF6C6C" fill-opacity=".6" d="M46 16.5H28a4 4 0 0 0-4 4v18a4 4 0 0 0 4 4h18a4 4 0 0 0 4-4v-18a4 4 0 0 0-4-4Z"/><path fill="#FF6C6C" fill-opacity=".2" d="M99.5 19.5h-36a3.5 3.5 0 1 0 0 7h36a3.5 3.5 0 1 0 0-7Zm92 0h-81a3.5 3.5 0 1 0 0 7h81a3.5 3.5 0 1 0 0-7Zm-83 13h-45a3.5 3.5 0 1 0 0 7h45a3.5 3.5 0 1 0 0-7Zm45 0h-28a3.5 3.5 0 1 0 0 7h28a3.5 3.5 0 1 0 0-7Z"/></g></g><defs><clipPath id="a"><path fill="#fff" d="M0 0h232v137H0z"/></clipPath></defs></svg>