<svg xmlns="http://www.w3.org/2000/svg" xmlns:xlink="http://www.w3.org/1999/xlink" fill="none" viewBox="0 0 232 137"><g clip-path="url(#a)"><g clip-path="url(#b)"><g filter="url(#c)"><path fill="url(#d)" d="M466.65 133h-576.4V5h576.4v128Z"/></g><path fill="#1B6313" fill-rule="evenodd" d="M2 8.41a62.13 62.13 0 0 0 19.29 13.6c-.1.1-.03.2-.38.05A60.43 60.43 0 0 1 2 9.06v-.65Zm0-2.26c.2-.05.4-.12.62-.2l2.35-.94h4.66C8.11 5.88 6.08 7 4.35 7.06A17 17 0 0 1 2 7v-.85Z" clip-rule="evenodd"/><path fill="#1B6313" fill-rule="evenodd" d="M2 8.33c.32.07 1.33.2 3.2-.54C6.63 7.22 9.53 5.9 12.49 5h3.2a83.4 83.4 0 0 0-3.44 1.73c-1.84 1-4.63 2.7-6.85 2.56-1.96-.13-2.96-.5-3.4-.66v-.31Zm2.11 2.19s1.36.1 3.09-.54c1.72-.64 9.16-4.02 13.04-3.68 0 0-3.31 1.38-5.53 2.56-2.23 1.17-5.62 2.65-7.68 2.45-2.05-.2-2.81-.45-2.81-.45s-.4-.34-.1-.34Zm2.07 1.87s1.16.24 2.42-.19c1.27-.42 9.43-3.85 13.88-3.77 0 0-2.7 1.42-5.33 2.58-2.62 1.17-5.57 2.25-7.43 2.2-1.87-.05-2.89-.4-3.45-.52-.56-.13-.44-.31-.09-.3Zm2.31 1.9s1.8.01 3.87-.63c2.07-.65 7.95-3.06 12-2.72 0 0-3.1 1.35-5.12 2.2-2.01.85-4.23 1.65-6.31 1.73-2.08.09-3.36.05-4.27-.25-.91-.3-.35-.37-.17-.33Zm2.45 1.81s1.88-.02 3.54-.57C16.14 15 22 13.1 26.22 13.27c0 0-2.2.84-3.88 1.54-1.7.7-4.83 1.77-6.33 1.83-1.5.05-3.22.22-4.95-.24l-.4-.27s.1-.07.28-.03Zm2.61 1.74s2.22-.23 3.75-.72c1.52-.48 3.85-1.1 5.2-1.23 1.36-.13 5.05-.43 5.05-.43s-3.3 1.47-5.39 2.03c-2.35.62-4.78.9-7.2.81l-1.13-.12c-.35-.04-.46-.34-.28-.34Zm2.67 1.6s1.43.06 2.92-.36a22.5 22.5 0 0 1 4.45-.88c1.3-.07 5.25-.16 6.32-.55 0 0-2.12 1.44-4.8 1.82-2.66.37-4.86.76-8.07.26 0 0-.49-.08-.6-.08-.12-.01-.3-.14-.22-.21Zm2.09 1.13s1.75.05 2.8-.06c1.06-.11 2.36-.12 3.96-.11 1.6 0 5.07.37 5.95.37 0 0-2.22.85-4.81.88a30 30 0 0 1-5.83-.42l-1.61-.43s-.36-.03-.46-.23Zm2.36 1.16s1.5.27 2.21.29c.7.02 2.91.5 3.95.78 1.03.27 4.36 1.28 5.34 1.27 0 0-2.07.51-4.22.27a16.51 16.51 0 0 1-4.76-1.32c-.65-.3-1.3-.62-1.96-.94l-.56-.22v-.13Z" clip-rule="evenodd"/><path fill="#1B6313" fill-rule="evenodd" d="M21.23 22.08s.3.43.8.7c.49.26 5.03 2.76 7.69 5.47 0 0-2.6-.84-4.22-1.94a20.2 20.2 0 0 1-4.87-4.37l.1-.01s.32.08.5.15Zm-2.7-1.1s1.36 2.16 2.46 3.6c1.1 1.44 4.13 4.86 5.92 5.74 0 0-1.5-2.12-2.41-3.17-.9-1.06-2.74-3.28-3.4-3.91-.67-.64-1.83-1.6-2.26-2.2l-.16-.2-.14.15Zm-2.04-1.04s.88 1.47 1.34 2.76c.47 1.3 2.56 6.5 6.27 8.64 0 0-1.82-2.4-2.81-4.4-.99-2-2.47-4.47-3.3-5.48l-1.28-1.5s-.23-.18-.22-.02Zm-2.13-1.2 1.11 3.15c.56 1.6 2.12 7.22 5.84 9.61 0 0-1.88-2.5-2.87-5.35-.99-2.85-2.48-5.67-3.11-6.44l-.85-1.03s-.22-.29-.12.05ZM12 17.25s.84 2.23 1.11 3.83c.27 1.6.95 7.2 5.52 10.59 0 0-2.13-3.28-2.69-5.72-.55-2.45-1.33-5.16-2.2-6.48a73.1 73.1 0 0 0-1.53-2.2s-.27-.25-.2-.02Zm-2.09-1.44s.35 1.9.62 3.88.08 7.26 4.66 11.82c0 0-1.49-2.86-1.96-5.55s-1.22-6.27-1.85-7.65a91.26 91.26 0 0 0-1.14-2.4s-.32-.35-.33-.1ZM7.77 14.2s.38 1.86.32 3.37c-.06 1.52-.41 8.38 3.53 13.48 0 0-1.17-3.21-1.42-5.93-.25-2.71-.32-5.42-.65-6.75a14.1 14.1 0 0 0-1.52-3.97l-.27-.34v.14Zm-1.93-1.58s.15 1.22.02 2.45c-.13 1.22-.39 3.43-.44 4.92-.04 1.49-.28 5.66 2.63 9.5 0 0-.83-2.87-.84-6.81 0-3.95.13-6.46-.5-8.25-.63-1.8-.85-2.13-.85-2.13l-.02.32ZM3.8 10.8s.1 1.47-.18 2.9c-.3 1.44-.96 4.47-.95 5.91 0 1.44-.48 5.05 2.17 8.55 0 0-1.1-2.95-.7-6.24.4-3.29 1-5.56.73-7.64a15.92 15.92 0 0 0-.77-3.34s-.31-.44-.3-.14Zm-1.8 6c.46-1.88.75-2.97.64-4.03a20.57 20.57 0 0 0-.62-3.82L2 8.9v7.9Z" clip-rule="evenodd"/><path fill="#519D24" fill-rule="evenodd" d="M26.63 5a250.91 250.91 0 0 0 5.66 17.34l-.17.02a274.1 274.1 0 0 1-6-17.35h.5Zm12.92 0 .44.4-1.3-.4h.86Zm-5.29 0c2.1.93 4.46 2.1 6.52 3.46 0 0-4.98-1.11-6.8-1.7a31.7 31.7 0 0 1-4.2-1.75h4.48Zm-6.52 0c.47.28 1 .56 1.46.75 1.22.5 7.76 3.28 12.17 6.11 0 0-4.22-.97-5.72-1.56-1.5-.6-5.05-1.94-6.4-3.04-.86-.72-1.7-1.47-2.5-2.25h.99Z" clip-rule="evenodd"/><path fill="#519D24" fill-rule="evenodd" d="M27.32 7.34S29 8.52 30.55 9.12c1.56.6 6.5 2.69 10.94 5.95 0 0-4.46-1.38-5.84-1.88-1.39-.5-4.03-1.63-5.37-2.66-1.34-1.03-2.12-1.93-2.8-2.63l-.24-.26.08-.3Zm.95 3.12s.95.79 2.04 1.27a88 88 0 0 1 4.46 2.23c1.4.74 7.01 4.07 7.01 4.07s-4.46-1.2-6.34-1.93a17.23 17.23 0 0 1-4.41-2.5 11.77 11.77 0 0 1-2.63-2.73l-.18-.16.05-.25Zm1 3.15s.8.74 1.99 1.22c1.17.48 5.1 2.44 6.4 3.39 1.31.95 4.21 2.81 4.21 2.81s-4.34-1.23-6.7-2.43a18.55 18.55 0 0 1-4.46-2.96 12.82 12.82 0 0 1-1.31-1.62l-.29-.16.16-.25Zm.95 2.9s1 .91 2.15 1.52c1.15.6 3.2 1.67 4.46 2.5 1.25.83 4.7 3.78 4.7 3.78s-3.15-1.34-4.56-2.02c-1.41-.68-3.16-1.63-4.15-2.61-1-.99-1.9-1.93-2.39-2.55l-.2-.21v-.4Zm1.01 2.93s2.02 1.61 3.16 2.35c1.15.73 5.35 3.46 6.73 5.12 0 0-2.55-1.11-3.8-1.75a21.5 21.5 0 0 1-3.9-2.83 26.51 26.51 0 0 1-2.02-2.43l-.21-.29.04-.18Zm.77 2.11s1.31 1.5 2.3 2.21a15.1 15.1 0 0 1 2.66 2.38c.77.89 3.03 3.4 3.3 3.65 0 0-2.42-.93-4.03-2.47a27.53 27.53 0 0 1-3.99-5.12l-.17-.21-.07-.44Z" clip-rule="evenodd"/><path fill="#519D24" fill-rule="evenodd" d="M32.3 22.34s.92 2.06 1.52 2.96c.6.91 1.52 2.79 2 3.95.47 1.17 1.58 3.79 1.58 3.79s-2.08-1.8-2.9-3.7a51.26 51.26 0 0 1-1.94-5.32c-.26-.95-.37-1.67-.37-1.67l-.04-.12.14.11Z" clip-rule="evenodd"/><path fill="#519D24" fill-rule="evenodd" d="M32.19 22.35s.07 1.85.22 2.77c.15.91.33 2.83.33 3.93s.16 3.34.37 4.13c0 0-1.15-2.09-1.49-4.01a21.2 21.2 0 0 1-.05-5.34c.1-.6.24-1.18.44-1.75l.14.15.04.12ZM30.8 18.9s-.32 1.53-.64 2.57c-.32 1.04-1.53 6.18-.38 10.25 0 0 .32-3.18.57-4.77.24-1.6.67-4.51.67-5.68 0-1.16-.11-2.09-.11-2.09l.02-.3-.13.02Zm-.97-2.68s-.4 1.5-.76 2.53c-.37 1.04-1.3 3.43-1.76 4.72-.48 1.3-.74 3.85-.47 6.38 0 0 .82-3.02 1.41-4.8.59-1.78 1.23-3.45 1.43-5.1.14-1.1.24-2.2.31-3.29v-.38l-.16-.06Zm-.93-2.66s-.57 1.8-1.1 2.85c-.55 1.04-1.68 3.43-2.32 4.84-.63 1.42-1.53 4.65-1.24 6.3 0 0 1.23-3.2 2.2-4.94.97-1.74 1.83-3.8 2.17-5.33.36-1.53.42-3.36.42-3.36L29 13.4l-.1.17Zm-.83-2.44s-.73 1.55-1.39 2.51c-.65.97-1.98 3.21-2.69 4.67s-2.17 4.38-2.39 6.67c0 0 1.57-2.4 2.66-3.99 1.1-1.6 2.63-4.28 3.09-5.86.45-1.57.84-3.65.84-3.65l.07-.37-.19.02Zm-.91-2.8s-.6 1.53-1.48 2.64c-.87 1.1-5.33 7.16-6.42 11.53 0 0 2.23-2.57 3.8-4.7 1.56-2.13 3.12-4.77 3.6-6.24.5-1.47.62-2.85.62-2.85l.02-.4-.14.02Zm-.85-2.67s-1.25 1.98-1.96 2.81a97.6 97.6 0 0 0-3.77 4.9c-.69 1.01-2.88 4.88-3.22 6.29 0 0 1.67-1.9 3.12-3.45a37.31 37.31 0 0 0 4.3-5.76c.85-1.52 1.48-3.3 1.63-4.47l.04-.43-.14.11Zm-2.44-.64-.05.06c-.99 1.19-3.1 3.58-4.37 5.27-1.28 1.7-3.3 4.88-3.77 6.5 0 0 2.1-2.2 3.52-3.77 1.42-1.58 3.38-3.65 4.54-5.6.46-.8.86-1.61 1.19-2.46h-1.06Zm-3.6 0a29.76 29.76 0 0 0-2.23 2.67c-.93 1.39-3.06 4.57-3.53 6.1l3.44-3.6c1.3-1.36 3.42-3.46 4.48-5.08l.06-.1h-2.23Zm-3.54 0c-1.47 1.78-2.77 3.77-3.05 5.47 0 0 1.85-2.17 3.87-3.95.55-.5 1.1-1.01 1.6-1.52h-2.42Zm-2.78 0c-.36.6-.65 1.25-.87 1.93L15.14 5h-1.18Z" clip-rule="evenodd"/><path fill="#8EC742" fill-rule="evenodd" d="M42.13 5c-1.16 6-.54 12.02 2.29 15.88-.03.17-.12.24-.25.22-3.08-4.53-3.52-10.3-2.36-16.1h.32Zm11.25 0c.8.57 1.57 1.03 2.25 1.3 0 0-2.25-.42-4.23-1.3h1.98ZM49.4 5c1.79 1.4 4 2.81 6.36 3.59 0 0-2.7-.2-5-1.12A14.62 14.62 0 0 1 46.6 5h2.79Zm-3.92 0c1.8 1.69 6.02 5.34 9.48 5.93 0 0-3.6.27-6.57-1.58-2.64-1.64-3.84-3.05-4.55-4.34h1.64Z" clip-rule="evenodd"/><path fill="#8EC742" fill-rule="evenodd" d="M42.48 5c.24.5.66 1.2 1.3 1.8 1.07.98 6.12 5.57 11.37 6.5 0 0-4.16.05-6.98-1.33-2.83-1.38-4.27-3-4.82-4.06-.47-.9-1-2.47-1.16-2.9h.3Zm-.73 2.5s.47 1.24 1.9 2.49c1.44 1.25 6.4 5.03 10.41 5.8 0 0-3.24.1-5.5-.84-2.27-.95-4.43-2.42-5.5-3.94-1.06-1.52-1.35-3.1-1.35-3.1l-.1-.3.14-.12Z" clip-rule="evenodd"/><path fill="#8EC742" fill-rule="evenodd" d="M41.58 10.8s.95 1.34 2.1 2.21c1.16.87 6.39 4.72 9.93 5.42 0 0-3.27-.05-5.18-.83-1.92-.78-3.98-1.94-5.21-3.5-1.24-1.55-1.64-2.88-1.64-2.88l-.12-.19.12-.24Z" clip-rule="evenodd"/><path fill="#8EC742" fill-rule="evenodd" d="M41.8 13.84s.8 1.17 2.26 2.17c1.47 1 7 4.58 10.5 4.74 0 0-3.88.42-7.37-1.25a10.47 10.47 0 0 1-5.34-5.25l-.16-.23.1-.18Z" clip-rule="evenodd"/><path fill="#8EC742" fill-rule="evenodd" d="M42.46 16.88s.71 1.13 2.36 2.2c1.65 1.08 5.86 3.65 9.92 3.98 0 0-4.94.58-8.34-1.48 0 0-2.62-1.54-3.7-3.98l-.25-.34v-.38Z" clip-rule="evenodd"/><path fill="#8EC742" fill-rule="evenodd" d="M44.42 20.88s1.55 1.37 3.43 2.21c1.88.84 6.21 2.76 8.42 2.35 0 0-2.34.96-4.57.38a13.18 13.18 0 0 1-6-3.17s1.05 1.38 2.15 2.25c1.1.86 4.08 3.61 7.38 3.38 0 0-3.22.82-5.73-.72a14.25 14.25 0 0 1-5.33-6.46l.06-.19.19-.04Z" clip-rule="evenodd"/><path fill="#8EC742" fill-rule="evenodd" d="M43.18 19.43s-.25 3.19.44 4.97a8.9 8.9 0 0 0 7.17 5.92s-2.39-.6-4.23-3.14c-1.84-2.54-2.97-5.65-3.12-7.26l-.02-.4-.24-.09Z" clip-rule="evenodd"/><path fill="#8EC742" fill-rule="evenodd" d="m42.01 16.48-.8 2.51c-.32.94-2.3 7.65 4.58 11.46 0 0-2.84-1.64-3.35-5.67-.5-4.03-.21-5.32-.3-6.33-.1-1.01.06-1.6.06-1.6l-.19-.37Z" clip-rule="evenodd"/><path fill="#8EC742" fill-rule="evenodd" d="M41.37 13.3s-1.46 2.24-2.17 4.11c-.72 1.88-2.38 6.29.96 10.94 0 0-1.4-3.37-.67-6.27.73-2.9 1.6-5.68 1.68-6.7.08-1 .35-1.6.35-1.6l-.15-.48Z" clip-rule="evenodd"/><path fill="#8EC742" fill-rule="evenodd" d="M41.22 10.36s-1.36 1.7-2.3 2.83c-.95 1.14-4.2 5.84-1.93 11.29 0 0-.4-2.92.7-5.64 1.1-2.73 2.04-4.17 2.44-5.32.4-1.15 1.16-2.65 1.16-2.65l.13-.51h-.2Zm.2-2.94s-.97 1.04-1.95 1.9c-.98.86-5.17 4.67-5.19 10.53 0 0 .97-3 2.6-5.1a38.62 38.62 0 0 0 3.1-4.5l1.44-2.51.19-.32h-.2Z" clip-rule="evenodd"/><path fill="#8EC742" fill-rule="evenodd" d="M41.38 5c-.48.39-1.25.97-1.97 1.47-1.18.82-5.62 4.23-6.07 9.9 0 0 1.03-2.65 3.03-4.83 2-2.19 3.3-3.55 4.04-4.64.45-.65.93-1.28 1.44-1.9h-.47Zm-4.13 0c-.35.26-.7.53-1.02.82-1.28 1.17-3.76 3.31-4.1 6.8 0 0 .79-1.92 2.68-3.55 1.7-1.47 3.61-2.9 4.8-4.06h-2.36Zm-3.92 0a9.54 9.54 0 0 0-2.04 4.1s1.3-2.18 4.31-4.08l.01-.01h-2.28Zm-2.3 0-.12.32.23-.31h-.11Z" clip-rule="evenodd"/><path fill="#A8BB3C" fill-rule="evenodd" d="M12.92 37.01c0 .02.05-.04.05-.02l-.05.02ZM2 16.4c4.44 1.04 7.55.13 12.61 1.3l-.22-.3c-.3-.26-.72-.43-1.06-.59C9.05 14.83 4.86 14.98 2 14.98v1.42Zm0 1.26v.69c1.15.46 2.4.93 3.47 1.3 2.74.98 8.37 1.3 12.36 3l.75.34c.24.05.06.05.24 0-.4-.25-1.12-.97-1.94-1.5-5.4-3.56-11.75-3.22-14.88-3.83Zm0 1.64v1c.06.07.1.13.13.2.16.32.07 1.25-.13 2.4v9.63l.39-2.25c.28-1.57.5-2.94.6-4.48.13-1.7-.2-3.52-.1-4.15.32.36.5.65.72 1.03.94 1.56 1.34.1.56 3.57-.8 3.57-1.62 7.5-1.23 11.08.15 1.41.43 3.12.99 4.41l.14.28c.28-1.34.01-2.96.26-4.43a41.38 41.38 0 0 0 .79-8.72c-.01-1.25-.14-2.96.06-4.21.24.5.45.59.73 1l.57 1.06c.59 1.05-.25 4.32-.48 5.52a29 29 0 0 0 .06 10.58c.12.65.16 1.95.74 2.3.04-.44-.15-.58-.16-1.08-.02-1.16.35-2.28.46-3.41.16-1.48.27-2.97.38-4.44.1-1.55.11-2.78.08-4.27-.04-1.37-.25-2.67-.25-4.05a16 16 0 0 1 1.2 1.95c.33.64.2.42.08 1.25-.2 1.24-.04 2.68-.18 3.95-.3 2.69-.8 5.36-.33 7.97.18.99.43 4.1 1 4.7.03-.43-.08-.68-.1-1.08-.04-1.07.14-2.13.2-3.2.07-1.39.32-2.89.42-4.3.1-1.4.05-2.8-.02-4.15-.05-.81-.51-3.34-.35-3.92.29.24.36.68.55 1 .66 1.2.72 1.99.76 3.47.16 7.26-1.4 6.14 1.1 14.78.3-.15.34.23.1-.95-.2-1.03-.1-6-.07-7.06.08-1.94.2-4.18-.24-6.02-.14-.58-.33-1.18-.38-1.85.31.27.41.62.53 1.02.17.51.28.56.49 1.03.85 1.94.21 5.22.41 7.35.16 1.73.4 3.07.72 4.7.25 1.25.73 3.48 1.4 4.35l-.35-3.75c-.2-2.46-.58-4.83-.86-7.27-.11-.94-.6-2.81-.56-3.59.55 1 .96 5.6 1.5 7.18.2.54.26.62.37 1.17a33.1 33.1 0 0 0 1.87 5.62c1.17 2.32.42 1.07 1.8 3.08.24.35.41.6.76.9.1-.45-.1-.7-.29-1.07a5.82 5.82 0 0 1-.41-1c-.22-.64-.55-1.32-.76-1.95l-1.91-6.05c-.2-.75-.48-1.3-.69-1.99-.4-1.3-1.28-2.59-1.34-4 .23.23.41.5.53.78.87 2 1.89 3.93 3.05 5.77.22.34.34.47.52.8.56 1 2.11 2.98 2.88 3.8.58.62.75.92 1.39 1.38-.09-.44-.3-.71-.58-1.05-1.61-2-2.57-4.6-4.09-6.74-.53-.76-3.37-5-3.68-5.73-.22-.55-.84-1.56-.85-2.07.35.3.75 1.21 1.02 1.6a47.75 47.75 0 0 0 3.56 4.36c1.3 1.46 2.7 2.74 4.01 4.14.36.37.95 1.1 1.4 1.35-.14-.7-.8-1.4-1.28-2.02l-1.97-2.85c-.21-.3-.46-.6-.69-.93a24.58 24.58 0 0 0-4.88-5.2c-.31-.25-.6-.52-.88-.82l-.43-.46c-.12-.14-.2-.28-.32-.44a9.89 9.89 0 0 1-1.08-2c.87.59 1.98 2.07 2.82 2.85a77.34 77.34 0 0 0 6.36 5.33c.56.42 1.27.84 1.79 1.27.4.33 1.18 1.15 1.43 1.29l-1.36-1.94c-2.39-3.26-6.02-6.31-9.53-8.45-2.4-1.46-1.48-.66-2.75-2.67-.2-.33-.45-.63-.66-.95l1.75 1.14c2.64 2.45 5.78 4.45 8.92 6.29 1.6.93 2.22 1.56 3.51 2.54v-.08c-.16-.95-2.51-3.1-3.12-3.73-1.7-1.78-4.24-3.31-6.42-4.62-.91-.54-1.79-.78-2.7-1.25-.8-.4-1.99-.7-2.43-1.4-.38-.6-1.03-1.35-1.17-2.07 1.64.7 2.37 1.6 3.64 2.46 1.1.75 2.89 1.6 4.14 2.19 3.9 1.84 4.43 1.91 7.87 4.49-.24-.26-.47-.62-.72-.94a16.48 16.48 0 0 0-2.8-2.57c-3.4-2.63-5.92-3.85-9.98-5.48-3.05-1.23-2.25-.15-3.53-2.2-.12-.2-.37-.79-.6-.85.93.18 3.04 1.43 3.95 1.92 3.3 1.77 7.5 2.87 10.74 4.58.63.33 1.14.77 1.72 1.1-1.3-2.18-5.92-4.62-8.99-5.9-2.08-.87-3.8-1.33-5.92-2-1.11-.34-2.13-.48-2.69-1.25-.44-.62-.83-1.34-1.44-1.85l.3.04.22.08 1.6.72c2.13.96 4.25 1.92 6.48 2.66 4.51 1.48 4.53.94 9.08 3.27-1.92-2.46-6-4.37-9.65-5.57-.96-.32-2.06-.5-3.05-.75-1.02-.26-2.01-.52-3.05-.73-1.05-.2-2.02-.13-2.7-.97L2 19.3Z" clip-rule="evenodd"/></g><path fill="#FF6C6C" fill-opacity=".2" stroke="#FF6C6C" stroke-width="5" d="M10 2.5h212a7.5 7.5 0 0 1 7.5 7.5v117a7.5 7.5 0 0 1-7.5 7.5H10a7.5 7.5 0 0 1-7.5-7.5V10A7.5 7.5 0 0 1 10 2.5Z"/><path fill="#232323" d="M112 9a4 4 0 1 1 8 0 4 4 0 0 1-8 0Z"/><path fill="#454545" d="M114.5 9a1.5 1.5 0 1 1 3 0 1.5 1.5 0 0 1-3 0Z"/><path fill="#57E888" d="M119 14h-6c-.55 0-1 .36-1 .8 0 .45.45.81 1 .81h6c.55 0 1-.36 1-.8 0-.45-.45-.81-1-.81Z"/><path fill="#fff" d="M50 36a5 5 0 0 1 5-5h122a5 5 0 0 1 5 5v65a5 5 0 0 1-5 5H55a5 5 0 0 1-5-5V36Z"/><path fill="#FF6C6C" fill-opacity=".6" d="M96 46a5 5 0 0 1 5-5h31a5 5 0 0 1 0 10h-31a5 5 0 0 1-5-5Z"/><path fill="#FF6C6C" fill-opacity=".2" d="M118 62.5a2.5 2.5 0 0 1 2.5-2.5h27a2.5 2.5 0 1 1 0 5h-27a2.5 2.5 0 0 1-2.5-2.5Zm-22 0a2.5 2.5 0 0 1 2.5-2.5h15a2.5 2.5 0 1 1 0 5h-15a2.5 2.5 0 0 1-2.5-2.5Zm0 9a2.5 2.5 0 0 1 2.5-2.5h20a2.5 2.5 0 1 1 0 5h-20a2.5 2.5 0 0 1-2.5-2.5Zm30 0a2.5 2.5 0 0 1 2.5-2.5h11a2.5 2.5 0 1 1 0 5h-11a2.5 2.5 0 0 1-2.5-2.5Zm21 0a2.5 2.5 0 0 1 2.5-2.5h20a2.5 2.5 0 1 1 0 5h-20a2.5 2.5 0 0 1-2.5-2.5Z"/><path fill="#D32F2F" d="M50 36a5 5 0 0 1 5-5h33v75H55a5 5 0 0 1-5-5V36Z"/><path fill="#fff" fill-opacity=".6" d="M61 70.5a2.5 2.5 0 0 1 2.5-2.5h11a2.5 2.5 0 0 1 0 5h-11a2.5 2.5 0 0 1-2.5-2.5Z"/><path fill="#fff" d="M62.23 56.61a11.02 11.02 0 0 1 13.54 0A8.5 8.5 0 0 0 77.8 51a8.5 8.5 0 0 0-2.57-6.23A8.48 8.48 0 0 0 69 42.2a8.5 8.5 0 0 0-6.23 2.57A8.48 8.48 0 0 0 60.2 51a8.62 8.62 0 0 0 2.03 5.61ZM69 52.1c-1.08 0-2-.37-2.74-1.11a3.72 3.72 0 0 1-1.11-2.74c0-1.08.37-2 1.11-2.74A3.72 3.72 0 0 1 69 44.4c1.08 0 2 .37 2.74 1.11a3.72 3.72 0 0 1 1.11 2.74c0 1.08-.37 2-1.11 2.74A3.72 3.72 0 0 1 69 52.1Zm0 9.9a11.1 11.1 0 0 1-10.13-6.71A10.71 10.71 0 0 1 58 51a11.1 11.1 0 0 1 6.71-10.13c1.34-.58 2.77-.87 4.29-.87s2.95.29 4.29.87a11.1 11.1 0 0 1 5.84 5.84c.58 1.34.87 2.77.87 4.29s-.29 2.95-.87 4.29a11.1 11.1 0 0 1-5.84 5.84c-1.34.58-2.77.87-4.29.87Zm0-2.2a8.28 8.28 0 0 0 5.11-1.65A8.28 8.28 0 0 0 69 56.5a8.28 8.28 0 0 0-5.12 1.65A8.28 8.28 0 0 0 69 59.8Zm0-9.9a1.6 1.6 0 0 0 1.65-1.65A1.6 1.6 0 0 0 69 46.6a1.6 1.6 0 0 0-1.65 1.65A1.6 1.6 0 0 0 69 49.9Z"/><path fill="#fff" fill-rule="evenodd" d="M71.75 59.37c-.86.29-1.78.43-2.75.43s-1.89-.14-2.75-.43a8.28 8.28 0 0 1-2.37-1.22A8.28 8.28 0 0 1 69 56.5a8.28 8.28 0 0 1 5.11 1.65c-.71.53-1.5.94-2.36 1.22Z" clip-rule="evenodd"/><path fill="#000" d="M98 99h-2V83h2v16Zm3 0h-2V83h2v16Zm2 0h-1V83h1v16Zm4 0h-2V83h2v16Zm4 0h-3V83h3v16Zm2 0h-1V83h1v16Zm5 0h-3V83h3v16Zm3 0h-2V83h2v16Zm3 0h-2V83h2v16Zm2 0h-1V83h1v16Zm4 0h-2V83h2v16Zm4 0h-3V83h3v16Zm2 0h-1V83h1v16Zm5 0h-3V83h3v16Zm4 0h-2V83h2v16Zm3 0h-2V83h2v16Zm2 0h-1V83h1v16Zm4 0h-2V83h2v16Zm4 0h-3V83h3v16Z"/></g><defs><clipPath id="a"><path fill="#fff" d="M0 0h232v137H0z"/></clipPath><clipPath id="b"><path fill="#fff" d="M2 5h228v128H2z"/></clipPath><pattern id="d" width="1" height="1" patternContentUnits="objectBoundingBox"><use xlink:href="#e" transform="scale(.00025 .001126)"/></pattern><filter id="c" width="1131.01" height="682.6" x="-387.06" y="-272.3" color-interpolation-filters="sRGB" filterUnits="userSpaceOnUse"><feFlood flood-opacity="0" result="BackgroundImageFix"/><feBlend in="SourceGraphic" in2="BackgroundImageFix" result="shape"/><feGaussianBlur result="effect1_foregroundBlur_107_537" stdDeviation="138.65"/></filter></defs></svg>