<svg xmlns="http://www.w3.org/2000/svg" xmlns:xlink="http://www.w3.org/1999/xlink" width="55" zoomAndPan="magnify" viewBox="0 0 41.25 48" height="64" preserveAspectRatio="xMidYMid meet" version="1.0"><defs><clipPath id="9b916cae38"><path d="M 1.449219 26 L 38.917969 26 L 38.917969 42.117188 L 1.449219 42.117188 Z M 1.449219 26 " clip-rule="nonzero"/></clipPath><clipPath id="b888cd2ded"><path d="M 1.449219 19 L 38.917969 19 L 38.917969 35 L 1.449219 35 Z M 1.449219 19 " clip-rule="nonzero"/></clipPath><clipPath id="6a1e6c87e0"><path d="M 1.449219 19 L 38.917969 19 L 38.917969 34 L 1.449219 34 Z M 1.449219 19 " clip-rule="nonzero"/></clipPath><clipPath id="1a868a9324"><path d="M 1.449219 11 L 38.917969 11 L 38.917969 27 L 1.449219 27 Z M 1.449219 11 " clip-rule="nonzero"/></clipPath><clipPath id="92a93974e2"><path d="M 1.449219 4.648438 L 38.917969 4.648438 L 38.917969 38 L 1.449219 38 Z M 1.449219 4.648438 " clip-rule="nonzero"/></clipPath></defs><g clip-path="url(#9b916cae38)"><path fill="#064d6d" d="M 20.183594 42.117188 C 15.1875 42.117188 10.492188 41.382812 6.960938 40.050781 C 3.410156 38.707031 1.453125 36.917969 1.453125 35.007812 L 1.453125 26.910156 C 1.453125 26.878906 1.480469 26.851562 1.515625 26.851562 C 1.546875 26.851562 1.574219 26.878906 1.574219 26.910156 C 1.574219 28.347656 2.730469 29.726562 4.917969 30.90625 C 8.40625 32.785156 14.113281 33.90625 20.179688 33.90625 C 26.25 33.90625 31.957031 32.785156 35.445312 30.90625 C 37.632812 29.726562 38.789062 28.347656 38.789062 26.910156 C 38.789062 26.878906 38.816406 26.851562 38.847656 26.851562 C 38.882812 26.851562 38.910156 26.878906 38.910156 26.910156 L 38.910156 35.007812 C 38.910156 36.917969 36.953125 38.707031 33.402344 40.050781 C 29.871094 41.382812 25.175781 42.117188 20.183594 42.117188 Z M 35.203125 33.335938 C 34.15625 33.335938 33.304688 34.1875 33.304688 35.230469 C 33.304688 36.273438 34.15625 37.125 35.203125 37.125 C 36.25 37.125 37.101562 36.273438 37.101562 35.230469 C 37.101562 34.1875 36.25 33.335938 35.203125 33.335938 Z M 35.203125 33.335938 " fill-opacity="1" fill-rule="nonzero"/><path fill="#064d6d" d="M 35.472656 30.957031 C 32.097656 32.777344 26.507812 33.964844 20.179688 33.964844 C 13.855469 33.964844 8.265625 32.777344 4.890625 30.957031 C 2.761719 29.8125 1.515625 28.417969 1.515625 26.910156 L 1.515625 35.007812 C 1.515625 38.902344 9.871094 42.058594 20.183594 42.058594 C 30.492188 42.058594 38.847656 38.902344 38.847656 35.007812 L 38.847656 26.910156 C 38.847656 28.417969 37.601562 29.8125 35.472656 30.957031 Z M 35.203125 37.183594 C 34.121094 37.183594 33.246094 36.308594 33.246094 35.230469 C 33.246094 34.152344 34.121094 33.277344 35.203125 33.277344 C 36.285156 33.277344 37.160156 34.152344 37.160156 35.230469 C 37.160156 36.308594 36.285156 37.183594 35.203125 37.183594 Z M 35.203125 37.183594 " fill-opacity="1" fill-rule="nonzero"/></g><g clip-path="url(#b888cd2ded)"><path fill="#0a699e" d="M 20.179688 34.023438 C 14.09375 34.023438 8.367188 32.898438 4.863281 31.011719 C 2.632812 29.8125 1.453125 28.394531 1.453125 26.910156 L 1.453125 19.335938 C 1.453125 19.304688 1.480469 19.277344 1.515625 19.277344 C 1.546875 19.277344 1.574219 19.304688 1.574219 19.335938 C 1.574219 20.773438 2.730469 22.152344 4.917969 23.332031 C 8.40625 25.210938 14.113281 26.332031 20.179688 26.332031 C 26.25 26.332031 31.957031 25.210938 35.445312 23.332031 C 37.632812 22.152344 38.789062 20.773438 38.789062 19.335938 C 38.789062 19.304688 38.816406 19.277344 38.847656 19.277344 C 38.882812 19.277344 38.910156 19.304688 38.910156 19.335938 L 38.910156 26.910156 C 38.910156 28.394531 37.730469 29.8125 35.5 31.011719 C 31.996094 32.898438 26.269531 34.023438 20.179688 34.023438 Z M 35.203125 25.761719 C 34.15625 25.761719 33.304688 26.613281 33.304688 27.65625 C 33.304688 28.699219 34.15625 29.550781 35.203125 29.550781 C 36.25 29.550781 37.101562 28.699219 37.101562 27.65625 C 37.101562 26.613281 36.25 25.761719 35.203125 25.761719 Z M 35.203125 25.761719 " fill-opacity="1" fill-rule="nonzero"/></g><g clip-path="url(#6a1e6c87e0)"><path fill="#0a699e" d="M 35.472656 23.382812 C 32.097656 25.203125 26.507812 26.390625 20.179688 26.390625 C 13.855469 26.390625 8.265625 25.203125 4.890625 23.382812 C 2.761719 22.238281 1.515625 20.84375 1.515625 19.335938 L 1.515625 26.910156 C 1.515625 28.417969 2.761719 29.8125 4.890625 30.957031 C 8.265625 32.777344 13.855469 33.964844 20.179688 33.964844 C 26.507812 33.964844 32.097656 32.777344 35.472656 30.957031 C 37.601562 29.8125 38.847656 28.417969 38.847656 26.910156 L 38.847656 19.335938 C 38.847656 20.84375 37.601562 22.238281 35.472656 23.382812 Z M 35.203125 29.609375 C 34.121094 29.609375 33.246094 28.734375 33.246094 27.65625 C 33.246094 26.578125 34.121094 25.703125 35.203125 25.703125 C 36.285156 25.703125 37.160156 26.578125 37.160156 27.65625 C 37.160156 28.734375 36.285156 29.609375 35.203125 29.609375 Z M 35.203125 29.609375 " fill-opacity="1" fill-rule="nonzero"/></g><g clip-path="url(#1a868a9324)"><path fill="#1986cf" d="M 20.179688 26.449219 C 14.09375 26.449219 8.367188 25.324219 4.863281 23.4375 C 2.632812 22.238281 1.453125 20.820312 1.453125 19.335938 L 1.453125 11.765625 C 1.453125 11.730469 1.480469 11.703125 1.515625 11.703125 C 1.546875 11.703125 1.574219 11.730469 1.574219 11.765625 C 1.574219 13.199219 2.730469 14.582031 4.917969 15.757812 C 8.40625 17.636719 14.113281 18.757812 20.179688 18.757812 C 26.25 18.757812 31.957031 17.636719 35.445312 15.757812 C 37.632812 14.582031 38.789062 13.199219 38.789062 11.765625 C 38.789062 11.730469 38.816406 11.703125 38.847656 11.703125 C 38.882812 11.703125 38.910156 11.730469 38.910156 11.765625 L 38.910156 19.335938 C 38.910156 20.820312 37.730469 22.238281 35.5 23.4375 C 31.996094 25.324219 26.269531 26.449219 20.179688 26.449219 Z M 35.203125 18.191406 C 34.15625 18.191406 33.304688 19.039062 33.304688 20.082031 C 33.304688 21.128906 34.15625 21.976562 35.203125 21.976562 C 36.25 21.976562 37.101562 21.128906 37.101562 20.082031 C 37.101562 19.039062 36.25 18.191406 35.203125 18.191406 Z M 35.203125 18.191406 " fill-opacity="1" fill-rule="nonzero"/><path fill="#1986cf" d="M 35.472656 15.808594 C 32.097656 17.628906 26.507812 18.816406 20.179688 18.816406 C 13.855469 18.816406 8.265625 17.628906 4.890625 15.808594 C 2.761719 14.664062 1.515625 13.269531 1.515625 11.765625 L 1.515625 19.335938 C 1.515625 20.84375 2.761719 22.238281 4.890625 23.382812 C 8.265625 25.203125 13.855469 26.390625 20.179688 26.390625 C 26.507812 26.390625 32.097656 25.203125 35.472656 23.382812 C 37.601562 22.238281 38.847656 20.84375 38.847656 19.335938 L 38.847656 11.765625 C 38.847656 13.269531 37.601562 14.664062 35.472656 15.808594 Z M 35.203125 22.035156 C 34.121094 22.035156 33.246094 21.160156 33.246094 20.082031 C 33.246094 19.003906 34.121094 18.128906 35.203125 18.128906 C 36.285156 18.128906 37.160156 19.003906 37.160156 20.082031 C 37.160156 21.160156 36.285156 22.035156 35.203125 22.035156 Z M 35.203125 22.035156 " fill-opacity="1" fill-rule="nonzero"/></g><g clip-path="url(#92a93974e2)"><path fill="#a4b9fb" d="M 35.203125 37.242188 C 34.089844 37.242188 33.183594 36.339844 33.183594 35.230469 C 33.183594 34.121094 34.089844 33.21875 35.203125 33.21875 C 36.316406 33.21875 37.222656 34.121094 37.222656 35.230469 C 37.222656 36.339844 36.316406 37.242188 35.203125 37.242188 Z M 35.203125 29.667969 C 34.089844 29.667969 33.183594 28.765625 33.183594 27.65625 C 33.183594 26.546875 34.089844 25.644531 35.203125 25.644531 C 36.316406 25.644531 37.222656 26.546875 37.222656 27.65625 C 37.222656 28.765625 36.316406 29.667969 35.203125 29.667969 Z M 35.203125 22.097656 C 34.089844 22.097656 33.183594 21.191406 33.183594 20.082031 C 33.183594 18.972656 34.089844 18.070312 35.203125 18.070312 C 36.316406 18.070312 37.222656 18.972656 37.222656 20.082031 C 37.222656 21.191406 36.316406 22.097656 35.203125 22.097656 Z M 20.179688 18.878906 C 14.09375 18.878906 8.367188 17.75 4.863281 15.863281 C 2.632812 14.664062 1.453125 13.246094 1.453125 11.765625 C 1.453125 11.679688 1.457031 11.601562 1.464844 11.527344 C 1.621094 9.667969 3.644531 7.933594 7.164062 6.644531 C 10.671875 5.359375 15.292969 4.648438 20.179688 4.648438 C 25.070312 4.648438 29.691406 5.359375 33.199219 6.644531 C 36.71875 7.933594 38.742188 9.667969 38.898438 11.527344 C 38.90625 11.601562 38.910156 11.679688 38.910156 11.765625 C 38.910156 13.246094 37.730469 14.664062 35.5 15.863281 C 31.996094 17.75 26.269531 18.878906 20.179688 18.878906 Z M 20.179688 18.878906 " fill-opacity="1" fill-rule="nonzero"/><path fill="#a4b9fb" d="M 1.515625 11.765625 C 1.515625 11.6875 1.515625 11.609375 1.523438 11.535156 C 1.84375 7.746094 10.074219 4.710938 20.179688 4.710938 C 30.289062 4.710938 38.519531 7.746094 38.839844 11.535156 C 38.847656 11.609375 38.847656 11.6875 38.847656 11.765625 C 38.847656 13.269531 37.601562 14.664062 35.472656 15.808594 C 32.097656 17.628906 26.507812 18.816406 20.179688 18.816406 C 13.855469 18.816406 8.265625 17.628906 4.890625 15.808594 C 2.761719 14.664062 1.515625 13.269531 1.515625 11.765625 Z M 35.203125 18.128906 C 34.121094 18.128906 33.246094 19.003906 33.246094 20.082031 C 33.246094 21.160156 34.121094 22.035156 35.203125 22.035156 C 36.285156 22.035156 37.160156 21.160156 37.160156 20.082031 C 37.160156 19.003906 36.285156 18.128906 35.203125 18.128906 Z M 35.203125 25.703125 C 34.121094 25.703125 33.246094 26.578125 33.246094 27.65625 C 33.246094 28.734375 34.121094 29.609375 35.203125 29.609375 C 36.285156 29.609375 37.160156 28.734375 37.160156 27.65625 C 37.160156 26.578125 36.285156 25.703125 35.203125 25.703125 Z M 35.203125 33.277344 C 34.121094 33.277344 33.246094 34.152344 33.246094 35.230469 C 33.246094 36.308594 34.121094 37.183594 35.203125 37.183594 C 36.285156 37.183594 37.160156 36.308594 37.160156 35.230469 C 37.160156 34.152344 36.285156 33.277344 35.203125 33.277344 Z M 35.203125 33.277344 " fill-opacity="1" fill-rule="nonzero"/></g></svg>