<svg xmlns="http://www.w3.org/2000/svg" width="17" height="13" fill="none" viewBox="0 0 17 13"><path fill="currentColor" d="M5.75 1a1.1 1.1 0 0 1 1.1 1.1v1.65a1.1 1.1 0 0 1-.44.88l-.258.193a.55.55 0 0 0-.16.678 7.7 7.7 0 0 0 3.516 3.512.55.55 0 0 0 .667-.167l.195-.256a1.1 1.1 0 0 1 .88-.44h1.65a1.1 1.1 0 0 1 1.1 1.1v1.65a1.1 1.1 0 0 1-1.1 1.1A9.9 9.9 0 0 1 3 2.1 1.1 1.1 0 0 1 4.1 1zm7.397 1.646a.5.5 0 0 1 .707.708L11.207 6H12a.5.5 0 0 1 0 1h-2a.5.5 0 0 1-.5-.5v-2a.5.5 0 0 1 1 0v.793l1.385-1.386q.055.016.115.018l.086-.009a.425.425 0 0 0 .339-.416v-.132zM12 1.125c.207 0 .375.168.375.375v2a.375.375 0 0 1-.75 0v-.918l-1.412 1.411a.6.6 0 0 0-.102-.032L10 3.95a.55.55 0 0 0-.55.549v.257l-.596.597a.5.5 0 0 1-.708-.708l2.772-2.771H10a.375.375 0 0 1 0-.75z"/></svg>