<svg xmlns="http://www.w3.org/2000/svg" width="17" height="13" fill="none" viewBox="0 0 17 13"><path fill="currentColor" d="M5.303 2.025a5.5 5.5 0 1 1 .87 9.459 1.1 1.1 0 0 0-.605-.051l-1.876.549a.552.552 0 0 1-.68-.643l.585-1.81a1.1 1.1 0 0 0-.052-.641 5.5 5.5 0 0 1 1.758-6.863m2.384 2.413a.5.5 0 0 0-.707 0L5.355 6.063a.5.5 0 0 0-.138.45.5.5 0 0 0 .125.241l.013.016L6.98 8.395a.5.5 0 1 0 .707-.707l-.772-.772h3.126a.585.585 0 0 1 .584.583v.542a.5.5 0 0 0 1 0V7.5a1.584 1.584 0 0 0-1.584-1.583H6.915l.772-.771a.5.5 0 0 0 0-.707"/></svg>