<svg xmlns="http://www.w3.org/2000/svg" width="17" height="13" fill="none" viewBox="0 0 17 13"><path fill="currentColor" d="M11.235 5.13c.212 0 .417.074.574.209a.8.8 0 0 1 .274.52.8.8 0 0 0 .131.362c.074.109.174.2.293.264a.9.9 0 0 0 .787.033.9.9 0 0 1 .613-.034c.202.061.372.19.478.364.106.173.14.377.096.573a.8.8 0 0 1-.338.484.8.8 0 0 0-.267.288.77.77 0 0 0 0 .744.8.8 0 0 0 .267.287c.172.116.293.29.338.485.044.195.01.4-.096.572a.85.85 0 0 1-.478.364.9.9 0 0 1-.613-.033.9.9 0 0 0-.787.033.84.84 0 0 0-.293.264.8.8 0 0 0-.13.362.8.8 0 0 1-.275.52.88.88 0 0 1-.574.209.88.88 0 0 1-.575-.209.8.8 0 0 1-.275-.52.8.8 0 0 0-.13-.362.84.84 0 0 0-.294-.264.9.9 0 0 0-.464-.107c-.205.382-.5.705-.861.933-.366.23-.785.353-1.214.353s-.848-.123-1.214-.353a2.5 2.5 0 0 1-.868-.945.5.5 0 0 1 .883-.468c.127.24.308.434.518.567s.445.2.681.2a1.28 1.28 0 0 0 .854-.33.767.767 0 0 1-.288-.785.8.8 0 0 1 .337-.486.8.8 0 0 0 .267-.287.77.77 0 0 0 0-.744.8.8 0 0 0-.267-.288.8.8 0 0 1-.337-.484.77.77 0 0 1 .096-.572.85.85 0 0 1 .478-.365.9.9 0 0 1 .612.034.9.9 0 0 0 .787-.033.84.84 0 0 0 .293-.264.8.8 0 0 0 .13-.363l.03-.146a.8.8 0 0 1 .246-.373.88.88 0 0 1 .575-.21m0 2.402c-.604 0-1.094.463-1.094 1.033s.49 1.033 1.094 1.033c.603 0 1.093-.463 1.093-1.033s-.49-1.033-1.093-1.033M7.422 1c.87 0 1.705.348 2.32.968.596.6.937 1.406.958 2.252q-.125.06-.232.15a1.02 1.02 0 0 0-.367.675 1 1 0 0 1-.175.47c-.098.142-.233.26-.392.344a1.22 1.22 0 0 1-1.05.042 1.23 1.23 0 0 0-.818-.042c-.269.08-.496.248-.638.473a.98.98 0 0 0-.126.744c.06.254.22.479.449.63.15.097.272.225.356.374a1 1 0 0 1 .13.482.98.98 0 0 1-.293.698H3.047a.55.55 0 0 1-.5-.33.55.55 0 0 1 .096-.592C3.368 7.584 4.14 6.78 4.14 4.304c0-.876.345-1.717.96-2.336A3.27 3.27 0 0 1 7.423 1"/></svg>