<svg xmlns="http://www.w3.org/2000/svg" width="17" height="13" fill="none" viewBox="0 0 17 13"><path fill="currentColor" d="M8.5 8a.5.5 0 0 1 .5.5V10h1.5a.5.5 0 0 1 0 1H9v1.5a.5.5 0 0 1-1 0V11H6.5a.5.5 0 0 1 0-1H8V8.5a.5.5 0 0 1 .5-.5m-.001-1.287a3.37 3.37 0 0 1 2.855 1.57 1.687 1.687 0 0 1 2.454.617c.148.285.212.606.186.926a5.1 5.1 0 0 1-2.11.272v.016q0 .192-.02.378-.19.109-.385.204A1 1 0 0 0 10.5 9.5h-.999v-1a1 1 0 0 0-2 0v1h-1a1 1 0 0 0-.98 1.196 7 7 0 0 1-.384-.204 4 4 0 0 1-.022-.395 5 5 0 0 1-2.108-.27 1.71 1.71 0 0 1 .836-1.608 1.69 1.69 0 0 1 1.804.065A3.37 3.37 0 0 1 8.5 6.713M4.692 3.236a1.77 1.77 0 0 1 1.769 1.776 1.79 1.79 0 0 1-.517 1.255 1.77 1.77 0 0 1-1.252.521A1.77 1.77 0 0 1 3.058 5.69a1.778 1.778 0 0 1 .383-1.933 1.77 1.77 0 0 1 1.251-.52m7.616 0c.47 0 .92.189 1.252.522a1.78 1.78 0 0 1-.575 2.894 1.767 1.767 0 0 1-2.447-1.64c0-.47.186-.921.518-1.254a1.77 1.77 0 0 1 1.252-.522M8.5 1.11c.582 0 1.14.233 1.55.646a2.21 2.21 0 0 1 0 3.11 2.189 2.189 0 0 1-3.742-1.554c0-.583.23-1.143.641-1.556S7.918 1.11 8.5 1.11"/></svg>