<svg xmlns="http://www.w3.org/2000/svg" width="17" height="13" fill="none" viewBox="0 0 17 13"><path fill="currentColor" d="M10.655 6.518a.24.24 0 0 1 .145.216V11.6a.236.236 0 0 1-.401.167L9.27 10.639a.47.47 0 0 0-.332-.138h-.806a.334.334 0 0 1-.333-.334v-2a.333.333 0 0 1 .333-.333h.806a.47.47 0 0 0 .332-.138l1.128-1.128a.24.24 0 0 1 .256-.05m2.412.174a.5.5 0 0 1 .707 0 3.5 3.5 0 0 1 0 4.95.5.5 0 0 1-.707-.707 2.5 2.5 0 0 0 0-3.536.5.5 0 0 1 0-.707m-2.62-5.546a.5.5 0 1 1 .707.707L9.006 4H12.3a1 1 0 0 1 1 1v.802a1.245 1.245 0 0 0-1.124 1.123 1.3 1.3 0 0 0-.376.097v-2.11a.43.43 0 0 0-.066-.23.4.4 0 0 0-.176-.15.37.37 0 0 0-.426.088l-1.88 1.975a.747.747 0 0 1-.555.24H7.356a.54.54 0 0 0-.393.17.6.6 0 0 0-.163.414v3.5a.6.6 0 0 0 .163.414c.096.1.223.158.357.167H4.3a1 1 0 0 1-1-1V5a1 1 0 0 1 1-1h3.293L5.446 1.853a.5.5 0 1 1 .708-.707L8.3 3.293zM12 7.766a.5.5 0 0 1 .7.101 2.17 2.17 0 0 1 0 2.6.5.5 0 0 1-.8-.6 1.17 1.17 0 0 0 0-1.4.5.5 0 0 1 .1-.7"/></svg>