<svg xmlns="http://www.w3.org/2000/svg" fill="none" viewBox="0 0 50 50"><path fill="#fff" d="M11.99 29.5a4.56 4.56 0 0 1 3.8 2.08 11.7 11.7 0 0 0 4.07 3.43c1.6.83 3.32 1.24 5.14 1.24a11.24 11.24 0 0 0 9.2-4.67 5.77 5.77 0 0 1 1.74-1.52A4.16 4.16 0 0 1 38 29.5h7.44A4.42 4.42 0 0 1 50 34v9H34.1v-5.12A15.54 15.54 0 0 1 20.22 40c-1.56-.5-3-1.23-4.32-2.16V43H0v-9c0-1.27.44-2.34 1.33-3.2a4.45 4.45 0 0 1 3.22-1.3h7.44Z"/><path fill="#fff" d="M25 22.75c2.39 0 4.92.4 7.61 1.2 2.7.82 4.45 1.91 5.29 3.3-1.1 0-2.14.27-3.13.82a7.08 7.08 0 0 0-2.44 2.22 8.3 8.3 0 0 1-3.18 2.75 9.22 9.22 0 0 1-11.48-2.75 7.17 7.17 0 0 0-2.41-2.22 6.32 6.32 0 0 0-3.16-.82c.84-1.39 2.6-2.48 5.29-3.3a26.7 26.7 0 0 1 7.61-1.2Zm-18.18-9a6.63 6.63 0 0 1 6.82 6.75c0 1.88-.66 3.47-1.96 4.78a6.58 6.58 0 0 1-4.86 1.97c-1.9 0-3.5-.66-4.83-1.97A6.48 6.48 0 0 1 0 20.5c0-1.91.66-3.52 1.99-4.81a6.66 6.66 0 0 1 4.83-1.94Zm36.36 0A6.63 6.63 0 0 1 50 20.5c0 1.87-.65 3.47-1.96 4.78a6.58 6.58 0 0 1-4.86 1.97 6.6 6.6 0 0 1-4.83-1.97 6.48 6.48 0 0 1-1.99-4.78c0-1.91.67-3.52 2-4.81a6.66 6.66 0 0 1 4.82-1.94ZM25 7a6.63 6.63 0 0 1 6.82 6.75c0 1.87-.65 3.47-1.96 4.78A6.58 6.58 0 0 1 25 20.5a6.6 6.6 0 0 1-4.83-1.97 6.48 6.48 0 0 1-1.99-4.78c0-1.91.67-3.52 2-4.81A6.66 6.66 0 0 1 25 7Z"/></svg>