<svg xmlns="http://www.w3.org/2000/svg" width="50" height="50" fill="none"><g clip-path="url(#a)"><path fill="url(#b)" d="M0 12A12 12 0 0 1 12 0h26a12 12 0 0 1 12 12v26a12 12 0 0 1-12 12H12A12 12 0 0 1 0 38V12Z"/><path fill="#fff" d="M30.14 28.02v2.48c0 .43-.15.78-.45 1.07-.3.29-.67.43-1.12.43-.44 0-.82-.14-1.12-.43-.3-.29-.45-.64-.45-1.07v-9c0-.43.15-.78.45-1.07.3-.29.68-.43 1.12-.43h6.29c.86 0 1.6.3 2.22.88.61.59.92 1.3.92 2.12v2.02c0 .6-.18 1.15-.55 1.64-.37.48-.81.86-1.34 1.14l1.03 2.29c.2.45.17.88-.12 1.3-.29.4-.7.61-1.22.61-.29 0-.55-.07-.79-.23a1.55 1.55 0 0 1-.55-.6l-1.41-3.15h-2.9Zm0-3h4.72V23h-4.72v2.02ZM15 26h6v4.5c0 .43.14.78.43 1.07.29.29.64.43 1.07.43.43 0 .78-.14 1.07-.43.29-.29.43-.64.43-1.07v-12c0-.43-.14-.78-.43-1.07A1.45 1.45 0 0 0 22.5 17c-.43 0-.78.14-1.07.43-.29.29-.43.64-.43 1.07V23h-6v-4.5c0-.43-.14-.78-.43-1.07A1.45 1.45 0 0 0 13.5 17c-.43 0-.78.14-1.07.43-.29.29-.43.64-.43 1.07v12c0 .43.14.78.43 1.07.29.29.64.43 1.07.43.43 0 .78-.14 1.07-.43.29-.29.43-.64.43-1.07V26Z"/></g><defs><linearGradient id="b" x1="50" x2="0" y1="49.65" y2=".35" gradientUnits="userSpaceOnUse"><stop stop-color="#EC4899"/><stop offset="1" stop-color="#A855F7"/></linearGradient><clipPath id="a"><path fill="#fff" d="M0 0h50v50H0z"/></clipPath></defs></svg>