<svg xmlns="http://www.w3.org/2000/svg" width="50" height="50" fill="none"><path fill="#F5D77F" d="M0 37.5A7.5 7.5 0 0 1 7.5 30h35a7.5 7.5 0 0 1 7.5 7.5V43a2 2 0 0 1-2 2H2a2 2 0 0 1-2-2v-5.5Z"/><path fill="#E7B44A" d="M13 37.5a7.5 7.5 0 0 1 7.5-7.5h9a7.5 7.5 0 0 1 7.5 7.5V45H13v-7.5Zm21-21a8.5 8.5 0 1 0-17 0 8.5 8.5 0 0 0 17 0Z"/><path fill="#F5D77F" d="M46 20.5a4.5 4.5 0 1 0-9 0 4.5 4.5 0 0 0 9 0Zm-32 0a4.5 4.5 0 1 0-9 0 4.5 4.5 0 0 0 9 0Z"/><path fill="#C59A36" d="M34 16.5a8.5 8.5 0 0 0-17 0c0 4.7 3.8-.5 8.5-.5s8.5 5.2 8.5.5Z"/><path fill="#E7B44A" d="M14 20.5a4.5 4.5 0 1 0-9 0c0 2.49 2.01 0 4.5 0s4.5 2.49 4.5 0Zm32 0a4.5 4.5 0 1 0-9 0c0 2.49 2.01 0 4.5 0s4.5 2.49 4.5 0Z"/></svg>