<svg xmlns="http://www.w3.org/2000/svg" width="17" height="13" fill="none"><path fill="currentColor" d="M12 10.35A1.62 1.62 0 0 1 10.37 12H3.85c-.45 0-.83-.16-1.15-.48a1.6 1.6 0 0 1-.48-1.17V8.7h1.63V1H12v9.35Zm2.06-6.04a.5.5 0 0 1 .24.04.66.66 0 0 1 .32.33.6.6 0 0 1 .05.24v5.69l-.92.92-.91-.92v-5.7a.6.6 0 0 1 .05-.23.64.64 0 0 1 .33-.33.54.54 0 0 1 .24-.05h.6ZM3.31 10.35a.54.54 0 0 0 .54.55h4.9V9.8H3.3v.55ZM4.94 8.7h4.89v1.65a.54.54 0 0 0 .54.55.5.5 0 0 0 .39-.16c.1-.1.16-.23.16-.39V2.1H4.94v6.6Zm8.5 1.66.31.3.31-.3V6.13h-.61v4.23ZM10.38 6.5h-4.9V5.4h4.9v1.1Zm0-1.65h-4.9v-1.1h4.9v1.1Z"/></svg>