<svg xmlns="http://www.w3.org/2000/svg" width="17" height="13" fill="none"><path fill="currentColor" d="M11.9 3.33c.25.2.33.56.42.85a30.96 30.96 0 0 0 .3.93 6.69 6.69 0 0 1 .08.24l.02.06c.07.1.17.13.28.18l.06.03.18.08.14.06.22.1c.78.33.78.33.87.5.01.13.02.25-.04.36-.1.11-.18.17-.33.19-.17 0-.33-.09-.49-.16l-.1-.05a40.31 40.31 0 0 1-.55-.24l-.26-.1a26.55 26.55 0 0 0-.36-.16.5.5 0 0 1-.3-.3l-.02-.08-.03-.1-.02-.06c-.14.27-.08.74-.07 1.04v.1c.01.2.04.34.2.5l.05.04.1.1.05.04.16.19.14.14.17.19a3.03 3.03 0 0 0 .3.3l.05.06c.1.1.17.2.2.35l.01.04.15.69.03.15a172.25 172.25 0 0 1 .15.72l.06.31.03.15c.15.71.15.71.02.94a.69.69 0 0 1-.4.28.7.7 0 0 1-.51-.11c-.2-.17-.24-.37-.29-.61v-.07l-.04-.14-.05-.31a85.88 85.88 0 0 1-.22-1.13c-.07-.4-.07-.4-.32-.69a8.34 8.34 0 0 1-.14-.14l-.16-.19-.14-.14a2.98 2.98 0 0 1-.17-.18 4.12 4.12 0 0 1-.83-.89l-.05-.05a1.4 1.4 0 0 1-.3-.86l-.01-.08c-.03-.4-.04-.8.02-1.2l.01-.1c0-.07.02-.1.05-.16.08-.07.17-.1.27-.14l.08-.03.22-.1.3-.12.17-.07.07-.03.07-.02.15-.1h.04a.67.67 0 0 0 .1-.5.51.51 0 0 0-.25-.27c-.17-.07-.32-.04-.49.03l-.1.05c-.11.06-.11.06-.2.03.3-.36.82-.6 1.25-.34ZM3.88 6.62c.19.08.33.27.46.42l.16.17.16.18.12.13a3.62 3.62 0 0 1 .33.35l.2.22.17.17c.05.05.1.1.13.16a.45.45 0 0 1-.14.18l-.33.3-.1.1-.06.05a46.01 46.01 0 0 1-.5.47l-.04.04-.1.1-.03.03-.04.04c-.04.02-.04.02-.09.01a.32.32 0 0 1-.12-.09 909.04 909.04 0 0 1-.18-.2.56.56 0 0 0-.27.21c-.05.04-.05.04-.1.04a.3.3 0 0 1-.13-.1l-.04-.05-.05-.05-.05-.05a38.19 38.19 0 0 1-.56-.6l-.03-.04a17.5 17.5 0 0 0-.1-.1c-.05-.06-.05-.06-.05-.1.05-.1.13-.15.21-.21.06-.05.06-.05.05-.15a2.6 2.6 0 0 0-.17-.17c-.08-.1-.08-.1-.09-.15.04-.07.1-.12.16-.17a74.45 74.45 0 0 0 .13-.12l.23-.21.1-.1a218.1 218.1 0 0 0 .76-.71Zm-.9 1.87-.08.08-.04.05-.03.03.06.06.35.37.2.2.1.1.13-.12c-.03-.12-.1-.18-.19-.27A35.2 35.2 0 0 1 3 8.5h-.03Z"/><path fill="currentColor" d="m10.5 7.53.16.11.03.05.04.04.1.1.04.05.23.24.1.1.04.05.15.16.05.06a70.33 70.33 0 0 1 .19.2l.1.09c.07.08.07.14.07.24v.05a7.98 7.98 0 0 1 0 .28c.02.33-.06.5-.26.75l-.22.28-.05.06a61.45 61.45 0 0 0-.8 1.07l-.04.05-.08.1c-.11.16-.25.3-.44.33-.21.02-.37 0-.54-.14a.62.62 0 0 1-.2-.45c0-.24.13-.41.27-.59l.08-.1.04-.06.24-.3.04-.07.22-.28.03-.05a10.78 10.78 0 0 0 .25-.31.72.72 0 0 0 .22-.6l-.01-.15-.02-.36-.02-.43v-.06a26.68 26.68 0 0 0-.01-.51Zm2.38-6.27c.23.21.35.48.37.78 0 .32-.1.6-.32.84-.23.22-.52.32-.84.31-.3-.02-.57-.16-.78-.38l-.14-.23-.03-.06a1.2 1.2 0 0 1-.02-.8c.11-.29.32-.51.6-.64.4-.16.84-.08 1.16.18Zm-1.42 2.39a.5.5 0 0 1 .18.23.5.5 0 0 1-.1.38c-.12.1-.28.16-.43.23l-.08.03-.24.1-.17.08-.5.21-.14.06a404.14 404.14 0 0 1-1.4.6l-.1.05-.06.02-.28.13-.2.09-.08.03a.64.64 0 0 1-.47.06.45.45 0 0 1-.24-.29c0-.13 0-.21.07-.33a1 1 0 0 1 .3-.19l.05-.02a23.4 23.4 0 0 1 .69-.3 168.48 168.48 0 0 1 2.72-1.17c.17-.07.3-.1.48 0Zm-5.64 2.2.05.07.06.08c.23.33.45.67.65 1.03l.2.3c.08.11.12.2.11.33l-.01.09-.01.04c-.07.38-.07.38-.14.51-.22-.04-.57-.13-.7-.33a.8.8 0 0 1-.06-.35l-.06-.4-.02-.08c-.1-.54-.1-.54-.32-1.04l.07-.05a.59.59 0 0 0 .18-.2Z"/><path fill="currentColor" d="M6.45 4.6c.17.17.35.38.39.62-.01.07-.01.07-.06.12-.07.04-.1.05-.18.03a1.99 1.99 0 0 1-.25-.1.57.57 0 0 0-.42-.03.58.58 0 0 0-.32.28c.03.09.07.11.14.16 0 .13-.05.2-.14.28a.23.23 0 0 1-.16.05l-.03-.06c-.08-.17-.16-.3-.3-.44-.18-.2-.28-.44-.31-.7a.65.65 0 0 1 .17-.39c.5-.32 1.04-.18 1.47.18Zm-1.35.02a.4.4 0 0 0-.05.32c.08.2.18.36.33.51l.03-.05.06-.07.04-.04A.72.72 0 0 1 5.94 5c.2-.02.39 0 .58.07-.08-.24-.32-.4-.53-.52l-.06-.03c-.26-.12-.62-.11-.83.1Zm-.05-1.48h3.83l.03.1H5.03l.02-.1Zm2.2-.19h2.7v.1h-2.7v-.1Zm-.54.4H9.4v.1H6.7v-.1Z"/></svg>