<svg xmlns="http://www.w3.org/2000/svg" width="17" height="13" fill="none"><path fill="currentColor" d="M8.44 12c-.55 0-1.01-.19-1.39-.57a1.9 1.9 0 0 1-.56-1.4 1.98 1.98 0 0 1 1.43-1.9v-1.1H4.8v-2.1H3.5V1.26h3.64v3.67h-1.3v1.05h5.2V4.86a1.98 1.98 0 0 1-.87-3.29c.38-.38.84-.57 1.38-.57a1.92 1.92 0 0 1 1.95 1.97 1.98 1.98 0 0 1-1.43 1.9v2.15H8.95v1.12a1.98 1.98 0 0 1 .87 3.29c-.38.38-.84.57-1.38.57Zm3.11-8.12c.25 0 .47-.09.64-.27a.9.9 0 0 0 .27-.65.89.89 0 0 0-.27-.64.87.87 0 0 0-.64-.27.87.87 0 0 0-.64.27.89.89 0 0 0-.27.64c0 .26.1.47.27.65.18.18.4.27.64.27Zm-7.01 0H6.1V2.31H4.54v1.57Zm3.9 7.07c.25 0 .46-.09.64-.27.18-.17.26-.4.26-.64a.89.89 0 0 0-.26-.65.87.87 0 0 0-.64-.27.87.87 0 0 0-.65.27.89.89 0 0 0-.26.65c0 .25.08.47.26.64.18.18.4.27.65.27Z"/></svg>