<svg xmlns="http://www.w3.org/2000/svg" width="17" height="13" fill="none"><path fill="currentColor" d="M9.6 7.06h2.75V5.94H9.6v1.12Zm0-1.68h2.75V4.25H9.6v1.13ZM4.65 8.75h4.4v-.3c0-.43-.2-.77-.6-1.01a3 3 0 0 0-1.6-.38 3 3 0 0 0-1.6.38c-.4.24-.6.58-.6 1v.31Zm2.2-2.25c.3 0 .56-.11.78-.33.21-.22.32-.49.32-.8 0-.3-.1-.57-.32-.79a1.05 1.05 0 0 0-.78-.33c-.3 0-.56.11-.78.33a1.1 1.1 0 0 0-.32.8c0 .3.1.57.32.79.22.22.48.33.78.33ZM4.1 11c-.3 0-.56-.11-.78-.33a1.1 1.1 0 0 1-.32-.8V3.13c0-.31.1-.58.32-.8.22-.22.48-.33.78-.33h8.8c.3 0 .56.11.78.33.21.22.32.49.32.8v6.75c0 .3-.1.57-.32.79-.22.22-.48.33-.78.33H4.1Zm0-1.13h8.8V3.13H4.1v6.75Z"/></svg>