<svg xmlns="http://www.w3.org/2000/svg" width="17" height="13" fill="none"><path fill="#F5D77F" d="M1 9.77c0-1.23 1-2.23 2.25-2.23h10.5c1.24 0 2.25 1 2.25 2.23v1.64a.6.6 0 0 1-.6.59H1.6a.6.6 0 0 1-.6-.6V9.78Z"/><path fill="#E7B44A" d="M4.9 9.77c0-1.23 1-2.23 2.25-2.23h2.7c1.24 0 2.25 1 2.25 2.23V12H4.9V9.77Zm6.3-6.24C11.2 2.13 10.06 1 8.65 1A2.54 2.54 0 0 0 6.1 3.53c0 1.4 1.14 2.52 2.55 2.52 1.4 0 2.55-1.13 2.55-2.52Z"/><path fill="#F5D77F" d="M14.8 4.72c0-.74-.6-1.34-1.35-1.34a1.33 1.33 0 1 0 0 2.67c.75 0 1.35-.6 1.35-1.33Zm-9.6 0c0-.74-.6-1.34-1.35-1.34a1.33 1.33 0 1 0 0 2.67c.75 0 1.35-.6 1.35-1.33Z"/><path fill="#C59A36" d="M11.2 3.53C11.2 2.13 10.06 1 8.65 1A2.54 2.54 0 0 0 6.1 3.53c0 1.4 1.14-.15 2.55-.15 1.4 0 2.55 1.54 2.55.15Z"/><path fill="#E7B44A" d="M5.2 4.72c0-.74-.6-1.34-1.35-1.34-.75 0-1.35.6-1.35 1.34 0 .74.6 0 1.35 0 .75 0 1.35.74 1.35 0Zm9.6 0c0-.74-.6-1.34-1.35-1.34-.75 0-1.35.6-1.35 1.34 0 .74.6 0 1.35 0 .75 0 1.35.74 1.35 0Z"/></svg>