<svg xmlns="http://www.w3.org/2000/svg" width="17" height="13" fill="none"><path fill="currentColor" d="M9.7.86a1.19 1.19 0 0 1 1.2 1.19v1.19h2.4a1.18 1.18 0 0 1 1.2 1.18v6.53a1.19 1.19 0 0 1-1.2 1.19H3.7c-.33 0-.61-.12-.85-.35a1.14 1.14 0 0 1-.35-.84V4.42a1.19 1.19 0 0 1 1.2-1.19h2.4V2.05A1.19 1.19 0 0 1 7.3.86h2.4Zm-6 10.1h9.6V7.67c-1.37.34-2.58.54-3.77.61-.05.08-.1.16-.18.24-.24.23-.52.35-.85.35a1.24 1.24 0 0 1-1.04-.6 24.51 24.51 0 0 1-3.76-.61v3.28Zm0-4.32c1.4.33 2.57.54 3.67.63.06-.16.16-.3.28-.42.24-.23.52-.35.85-.35.33 0 .61.12.85.35.13.13.22.27.28.43a20.6 20.6 0 0 0 3.67-.63V4.42H3.7v2.22Zm3.6-3.4h2.4v-1.2H7.3v1.2Z"/></svg>