<svg xmlns="http://www.w3.org/2000/svg" width="17" height="13" fill="none"><path fill="currentColor" d="M3.22 1.11c.25.15.25.15.33.27.02.1.02.1 0 .2-.08.1-.12.16-.26.18-.11-.02-.2-.06-.3-.11l-.9 1.52-.3.53A986.41 986.41 0 0 1 .64 5.66l1.35.78.02-.07a2.46 2.46 0 0 1 .21-.39 16368754419699.57 16368754419699.57 0 0 1 .33-.55c.05-.1.1-.2.16-.28l.3-.53.32-.53.12-.2.23-.4.1-.16a1489.37 1489.37 0 0 0 .53-.9.83.83 0 0 0-.2-.15c-.08-.09-.08-.11-.09-.23 0-.1.01-.13.07-.21a.54.54 0 0 1 .35-.03c.43.2.43.2.53.42 0 .14-.03.25-.1.36l.07.03.28.14c.3.18.64.37 1 .29l.2-.1.12-.07.06-.03a27.47 27.47 0 0 1 .76-.44l.1-.06.16-.1c.43-.24.9-.3 1.38-.18.2.06.4.12.51.3.02.1.02.22-.04.32a.58.58 0 0 1-.26.06l-.19-.07a1.24 1.24 0 0 0-.97-.02 4.37 4.37 0 0 0-.57.32l-.17.1c-.2.1-.38.22-.58.33a900.98 900.98 0 0 0-.87.49.8.8 0 0 0 .24.39c.25.16.49.22.8.2.19-.06.36-.16.54-.26.2-.1.38-.17.62-.13.16.05.26.15.39.26.16.14.35.18.55.17a.9.9 0 0 0 .56-.33c.07-.1.11-.2.15-.3.03-.07.03-.07.13-.13.13-.02.2-.02.31.05.1.15.06.33.02.5l.07.04 1.62.91.64.37a679.6 679.6 0 0 1 .68.38l.22.13.58.32.27-.16c-.19-.4-.41-.76-.63-1.13l-.31-.53-.07-.1-.29-.5-.1-.18-.13-.21-.26-.44c-.07-.1-.07-.1-.07-.17a82.48 82.48 0 0 0-.34.19l-.1.05a1.8 1.8 0 0 1-1.3.22c-.24-.06-.44-.13-.58-.33-.01-.12-.01-.17.06-.27a.4.4 0 0 1 .27-.09l.23.1c.24.1.53.1.78.01.23-.09.44-.21.65-.34l-.03-.09a.56.56 0 0 1 0-.37c.1-.1.23-.17.36-.24l.1-.06.13-.07.25-.14.06-.03.42-.24.11-.07.2-.12.1-.05.08-.05a.52.52 0 0 1 .38-.04c.15.1.22.25.3.42.05.07.1.14.13.21l.07.11.3.53a201.8 201.8 0 0 1 .63 1.07l.06.1.25.43.12.2.3.5.1.17c.03.08.08.15.12.22l.06.1.05.1.22.34c.05.1.06.19.06.3-.06.17-.23.26-.38.34l-.11.07-.12.06-.25.14-.07.04-.42.24-.1.06-.2.12c-.17.1-.3.17-.5.17a.68.68 0 0 1-.3-.26l-.1.07.06.08c.09.21.1.45.02.67-.14.33-.33.71-.67.88a.77.77 0 0 1-.3.06l.01.12c0 .32-.25.69-.46.93a1 1 0 0 1-.74.26l-.01.05c-.1.37-.3.82-.65 1.02a.9.9 0 0 1-.67.08 2.42 2.42 0 0 1-.33-.14v.1a1.2 1.2 0 0 1-.15.37l-.04.07c-.16.27-.31.47-.64.57-.48.07-.82-.18-1.22-.42l-.1-.05-.09-.06c-.08-.03-.08-.03-.15 0l-.13.1c-.12.09-.24.15-.36.22l-.08.04a1.2 1.2 0 0 1-.86.12c-.29-.13-.46-.4-.6-.66l-.03-.06a.99.99 0 0 1-.12-.37l-.09.03a.97.97 0 0 1-.67-.07c-.21-.11-.33-.3-.45-.5l-.04-.07c-.09-.15-.14-.3-.18-.47h-.08c-.32-.02-.52-.06-.75-.3-.22-.25-.44-.57-.43-.92V8.4h-.1c-.24-.05-.39-.2-.52-.4a8.3 8.3 0 0 1-.15-.22l-.03-.06a1.1 1.1 0 0 1-.12-.85l-.14-.04-.06.1a.4.4 0 0 1-.2.14c-.32-.02-.64-.26-.9-.42l-.11-.06a200.5 200.5 0 0 1-.73-.42l-.1-.05-.08-.05-.07-.04C.07 5.99.07 5.99 0 5.89c-.04-.28.07-.45.22-.69l.1-.17.1-.17.33-.54a139.43 139.43 0 0 1 .97-1.66l.52-.89.05-.1a60.87 60.87 0 0 1 .21-.35l.06-.08.04-.08c.17-.24.4-.17.6-.05Zm10.74.5-.16.09-.1.06-.11.06a509.5 509.5 0 0 1-.72.42l-.06.04c-.1.05-.1.05-.17.15.03.08.03.08.09.17l.07.12.07.12.07.12.15.26.27.45a197.7 197.7 0 0 0 1.63 2.77 2.45 2.45 0 0 0 .43-.21 86.1 86.1 0 0 0 .44-.25l.06-.03.46-.26c-.14-.3-.3-.57-.47-.85l-.33-.57-.07-.1-.13-.23-.37-.64-.32-.54-.54-.92-.04-.06c-.05-.1-.05-.1-.15-.17ZM4.58 3.05l-.04.06-.58 1-.06.1a3895.01 3895.01 0 0 1-1.24 2.1l.13.1.06.04c.08.03.08.03.16-.01l.1-.06.12-.07.12-.07.23-.13.1-.07c.33-.18.33-.18.5-.19.1.04.1.04.17.1.04.12.03.18 0 .3-.07.06-.07.06-.16.1a940.2 940.2 0 0 0-.85.48l-.1.05a.42.42 0 0 0-.22.25c-.02.18.1.34.2.49l.04.06a.5.5 0 0 0 .26.23c.24 0 .43-.13.63-.25l.1-.06c.41-.22.41-.22.7-.57.02-.16 0-.31-.04-.47a.42.42 0 0 1 0-.28c.1-.02.2-.04.3-.03.14.1.19.2.23.36v.32c0 .15 0 .28-.03.43l.06.03c.3.15.48.34.61.65.04.14.05.28.06.42h.07c.34.03.61.1.87.33.16.2.25.43.27.68v.1l.02.07h.08c.34.02.63.08.88.33.18.25.27.46.25.77l.01.17c.06.06.06.06.13.1l.08.05.09.05.08.05.26.14.08.05a.7.7 0 0 0 .47.12c.21-.15.36-.42.43-.66a.41.41 0 0 0-.1-.29l-.2-.13-.05-.03a18.97 18.97 0 0 0-.37-.21l-.08-.05-.09-.07c-.01-.23-.01-.23.04-.33.1-.05.18-.05.3-.03l.38.2a13934.86 13934.86 0 0 1 .64.38l.1.05.17.1c.13.08.22.13.37.12.12-.03.16-.04.23-.15l.04-.07.05-.07.05-.08c.1-.16.15-.28.12-.48-.14-.17-.34-.27-.54-.38l-.2-.12-.12-.06-.48-.28-.09-.05-.08-.05-.07-.04-.08-.06c-.02-.23-.02-.23.03-.33.1-.05.2-.05.3-.03l.38.2a102.83 102.83 0 0 0 .98.56c.33.21.33.21.7.32.25-.1.4-.39.5-.62a.5.5 0 0 0-.1-.36c-.08-.06-.08-.06-.17-.1l-.1-.07-.12-.06-.17-.1-.19-.1c-.2-.1-.4-.22-.59-.33l-.1-.06c-.5-.28-.5-.28-.56-.42 0-.1.01-.15.07-.23.1-.05.19-.05.3-.03a1844.97 1844.97 0 0 0 1.07.6l.1.06.2.11.1.06a47.5 47.5 0 0 1 .39.22l.06.04c.13.07.22.1.37.08.22-.13.33-.36.43-.59a.45.45 0 0 0 0-.26c-.14-.17-.33-.26-.52-.37a252.18 252.18 0 0 0-.33-.18l-.43-.25-.44-.25-.54-.3-.65-.37L11 5.4a129.06 129.06 0 0 0-.72-.4l-.09-.06-.16-.1-.07-.04-.06-.04c-.06-.02-.06-.02-.13.01l-.06.04-.07.04-.07.04c-.32.17-.68.2-1.03.11a2.15 2.15 0 0 1-.65-.39l-.08.04a133.49 133.49 0 0 1-.4.2 1.52 1.52 0 0 1-2.07-.7.58.58 0 0 1-.04-.38l.13-.23.04-.07-.1-.05c-.47-.22-.47-.22-.68-.35-.05-.03-.05-.03-.12-.02ZM4.55 8l-.12.06-.13.07-.06.03a.5.5 0 0 0-.26.26c-.02.17.04.29.13.43l.03.06c.13.21.13.21.34.32.19.01.34-.1.5-.19l.06-.03c.36-.2.36-.2.57-.52.02-.2 0-.36-.13-.52a.7.7 0 0 0-.49-.18c-.16.03-.3.12-.44.2Zm1.22 1.17-.1.06c-.27.14-.27.14-.42.38 0 .12.04.2.1.31l.03.06c.08.15.16.3.3.38.25.06.43-.08.63-.2l.09-.05c.2-.12.36-.22.44-.45a.64.64 0 0 0-.14-.52.61.61 0 0 0-.48-.18c-.16.03-.3.13-.45.21Zm1.18 1.2-.06.03c-.14.1-.14.1-.22.24-.02.17.03.29.12.43l.04.06c.07.13.14.22.27.3.22.02.34-.03.52-.14l.06-.04c.17-.1.3-.22.4-.4a.65.65 0 0 0-.05-.44.73.73 0 0 0-.43-.29c-.25 0-.44.11-.65.24Z"/></svg>