<svg xmlns="http://www.w3.org/2000/svg" width="17" height="13" fill="none"><path fill="currentColor" d="M10.05 5.99a.5.5 0 0 1 .37.15c.1.1.15.22.15.37a.5.5 0 0 1-.1.33 2.52 2.52 0 0 1 2.49.7c.5.5.76 1.12.76 1.84 0 .73-.26 1.34-.77 1.85s-1.13.77-1.85.77a2.5 2.5 0 0 1-1.86-.77 2.53 2.53 0 0 1-.76-1.85 2.64 2.64 0 0 1 1.46-2.36.5.5 0 0 1-.42-.51.5.5 0 0 1 .16-.37.5.5 0 0 1 .37-.15Zm-4.2-3.94h4.2V1h1.05v1.05h.52c.29 0 .54.1.74.3.2.21.3.46.3.74v2.98a3.63 3.63 0 0 0-1.04-.32V5.2H4.3v5.24h3.3a4.36 4.36 0 0 0 .5 1.05H4.3a.98.98 0 0 1-.74-.31 1 1 0 0 1-.31-.74V3.09a1 1 0 0 1 .3-.73 1 1 0 0 1 .75-.31h.52V1h1.05v1.05Zm4.99 7.44 1.13 1.13.37-.36-.98-.98V7.8h-.52v1.68Zm-4.98-1.4a.5.5 0 0 1 .37.14c.1.1.15.23.15.38a.5.5 0 0 1-.15.37.5.5 0 0 1-.37.15.5.5 0 0 1-.37-.15.5.5 0 0 1-.15-.37.5.5 0 0 1 .15-.38.5.5 0 0 1 .37-.15Zm2.1 0a.5.5 0 0 1 .37.14c.1.1.15.23.15.38a.5.5 0 0 1-.15.37.5.5 0 0 1-.38.15.5.5 0 0 1-.37-.15.5.5 0 0 1-.15-.37.5.5 0 0 1 .15-.38.5.5 0 0 1 .37-.15Zm-2.1-2.1a.5.5 0 0 1 .37.15c.1.1.15.22.15.37a.5.5 0 0 1-.15.37.5.5 0 0 1-.37.15.5.5 0 0 1-.37-.15.5.5 0 0 1-.15-.37.5.5 0 0 1 .15-.37.5.5 0 0 1 .37-.15Zm2.1 0a.5.5 0 0 1 .37.15c.1.1.15.22.15.37a.5.5 0 0 1-.15.37.5.5 0 0 1-.38.15.5.5 0 0 1-.37-.15.5.5 0 0 1-.15-.37.5.5 0 0 1 .15-.37.5.5 0 0 1 .37-.15ZM4.28 4.14h7.33V3.1H4.3v1.05Z"/></svg>