<svg xmlns="http://www.w3.org/2000/svg" width="17" height="13" fill="none"><path fill="currentColor" fill-rule="evenodd" d="M9.99 5.78h-.05c-.19 0-.37 0-.56.02a2.99 2.99 0 0 0-2.11 1.26.68.68 0 0 1-.2.08h-.2a4.95 4.95 0 0 0-.37 0 28.4 28.4 0 0 0-1.04 0 179.27 179.27 0 0 0-1.82 0H3.5l-.16-.01H3.2c-.09.01-.13.04-.19.1L3 7.3c0 .07 0 .14.08.43l.04.17.04.18.18.75.1.43.12.53.23 1.03v.02l.07.28.07.32.03.1.04.16v.05l.03.08.02.07c.05.06.08.08.15.1h.21a10.89 10.89 0 0 1 .68 0h1.27a705.5 705.5 0 0 0 3.72 0h.22a257.1 257.1 0 0 1 1.08 0h.03a78.91 78.91 0 0 1 .55 0h.37c.44-.05.9-.23 1.2-.58l.03-.05c.1-.1.17-.22.24-.34l.02-.04c.15-.3.2-.6.19-.93v-.12a37.85 37.85 0 0 0 0-.6v-.67a2.9 2.9 0 0 0-.86-1.93l-.04-.05-.06-.06c-.73-.7-1.62-.85-2.6-.84a32.83 32.83 0 0 1-.45 0ZM5.1 11.6h-.71c-.03-.03-.03-.03-.03-.08l-.02-.07-.02-.09a78.4 78.4 0 0 0-.06-.26l-.01-.06-.2-.84L4 9.9l-.03-.1v-.04L3.8 9.1l-.1-.45-.01-.03-.05-.21-.05-.23-.02-.08a7.44 7.44 0 0 1-.11-.57h5.89c.03.02.03.02.03.06l.02.06.01.06.02.07.03.15.1.45.03.1.2.93.06.24.03.11.12.54.1.4.03.15.05.2.01.07.06.29.02.07.02.12H5.1Zm3.7-5.26.07-.02c.33-.08.5-.12.67-.14a6.1 6.1 0 0 1 .9-.01h.34l.37.01a2.7 2.7 0 0 1 1.78.9l.05.06c.55.64.65 1.4.65 2.21v.59c0 .48-.1.9-.44 1.25-.33.3-.7.42-1.15.42a10.03 10.03 0 0 0-.64 0h-.55l-.15-.01c-.04-.07-.04-.07-.06-.16l-.01-.06-.03-.12a42.6 42.6 0 0 0-.04-.18l-.03-.13-.01-.06a3.13 3.13 0 0 1-.07-.42h.6l.25-.01h.24a.71.71 0 0 0 .45-.2.95.95 0 0 0 .16-.2c.05-.1.05-.24.05-.6a18.98 18.98 0 0 1 0-.39V8.8c-.02-.06-.04-.08-.09-.12a.37.37 0 0 0-.22.02.31.31 0 0 0-.06.14v.12a11.89 11.89 0 0 1 0 .56v.07c0 .16 0 .27-.1.4-.08.05-.12.08-.16.09l-.19.01h-.08a31.92 31.92 0 0 1-.97 0l-.16-.72v-.03L10.08 9a318.98 318.98 0 0 0-.32-1.36l-.02-.1-.02-.1-.02-.08a.35.35 0 0 0-.08-.18.4.4 0 0 0-.18-.04H9.4a19.47 19.47 0 0 0-.97 0H7.7v-.03c.32-.35.67-.62 1.12-.78Zm2.85-4.91c.5.39.82.92.91 1.55a2.28 2.28 0 0 1-1.93 2.55c-.35.02-.7.02-1.03-.09l-.08-.02c-.57-.2-1-.65-1.27-1.19a2.34 2.34 0 0 1-.08-1.73 2.26 2.26 0 0 1 3.48-1.07ZM8.44 3.42a2 2 0 0 1 .46-1.4c.35-.36.8-.6 1.3-.63.49-.01.98.12 1.34.47l.05.04c.13.13.24.26.34.42a2 2 0 0 1 .19 1.48 1.88 1.88 0 0 1-3.47.35l-.03-.06a2.3 2.3 0 0 1-.18-.67Z" clip-rule="evenodd"/><path stroke="currentColor" stroke-linecap="round" stroke-width=".5" d="M9.99 5.78h-.05m.05 0a87.25 87.25 0 0 1 .45 0c.98 0 1.87.14 2.6.84m-3.05-.84h-.05m0 0c-.19 0-.37 0-.56.02a2.99 2.99 0 0 0-2.11 1.26.68.68 0 0 1-.2.08h-.2a4.95 4.95 0 0 0-.37 0 28.4 28.4 0 0 0-1.04 0 179.27 179.27 0 0 0-1.82 0h-.12m0 0H3.5m0 0s0 0 0 0m0 0-.16-.01m0 0H3.3m.05 0H3.3m0 0h-.09m.1 0h-.1m0 0c-.09.01-.13.04-.19.1L3 7.3c0 .07 0 .14.08.43l.04.17m0 0 .04.18m-.04-.18.04.18m0 0 .18.75.1.43.12.53.23 1.03m0 0v.02m0-.02v.02m0 0 .07.28.07.32m0 0 .03.1m-.03-.1.03.1m0 0 .04.16m0 0v.05m0-.05v.05m0 0 .03.08.02.07c.05.06.08.08.15.1m0 0h.08m-.08 0h.08m0 0h.13a10.89 10.89 0 0 1 .68 0h1.06m0 0h.07m-.07 0h.07m0 0h.14m-.14 0h.14m0 0a705.5 705.5 0 0 0 3.72 0m0 0h.14m-.14 0h.14m0 0h.07m-.07 0h.07m0 0a257.1 257.1 0 0 1 1.08 0m0 0h.03m-.03 0h.03m0 0a78.91 78.91 0 0 1 .55 0h.37c.44-.05.9-.23 1.2-.58m0 0 .03-.05m-.04.05.04-.05m0 0c.1-.1.17-.22.24-.34m0 0 .02-.04m-.02.04.02-.04m0 0c.15-.3.2-.6.19-.93v-.12a37.85 37.85 0 0 0 0-.6v-.26m0 0v-.12m0 .12v-.12m0 0v-.3a2.9 2.9 0 0 0-.86-1.93m0 0-.04-.05m.04.05-.04-.05m0 0-.06-.06m.06.06-.06-.06M5.1 11.6h-.42m.42 0h2.66m-2.66 0h-.17m-.25 0h-.07m.07 0h-.07m0 0h-.07m.07 0h-.07m0 0h-.06m.06 0h-.06m0 0h-.1c-.03-.03-.03-.03-.03-.08m0 0-.02-.07m.02.07-.02-.07m0 0-.02-.09m.02.09-.02-.09m0 0a78.4 78.4 0 0 0-.06-.26m0 0-.01-.06m.01.06-.01-.06m0 0-.2-.84m0 0L4 9.9m.06.3L4 9.9m0 0-.03-.1m.03.1-.03-.1m0 0v-.04m0 .05v-.05m0 0L3.8 9.1l-.1-.45m0 0-.01-.03m0 .03v-.03m0 0-.05-.21-.05-.23m0 0-.02-.08m.02.08-.02-.08m0 0a7.44 7.44 0 0 1-.11-.57h2.2m0 0h.26m-.27 0h.27m0 0h.05m-.05 0h.05m0 0h2.66m0 0h.42m-.42 0h.18m.24 0h.07m-.07 0h.07m0 0h.07m-.07 0h.07m0 0h.06m-.06 0h.06m0 0h.1c.03.02.03.02.03.06m0 0 .02.06m-.02-.06.02.06m0 0 .01.06m-.01-.06.01.06m0 0 .02.07M9.4 7.7l.02.07m0 0 .03.15m-.03-.15.03.15m0 0 .1.45m0 0 .03.1m-.03-.1.03.1m0 0 .2.93m0 0 .06.24m-.05-.24.05.24m0 0 .03.11m-.03-.1.03.1m0 0 .12.54.1.4m0 0 .03.15m-.04-.15.04.15m0 0 .05.2m0 0 .01.07m-.01-.07.01.07m0 0 .06.29m0 0 .02.07m-.02-.07.02.07m0 0 .02.12m-.02-.12c0 .04 0 .08.02.12m0 0h-2.2m0 0h-.27m.27 0h-.27m0 0h-.05m.05 0h-.05m1.05-5.26.06-.02m-.06.02c-.45.16-.8.43-1.12.78m1.12-.78.06-.02m0 0c.33-.08.5-.12.67-.14a6.1 6.1 0 0 1 .9-.01h.25m0 0h.05m-.05 0h.05m0 0h.03m-.03 0h.03m0 0 .37.01a2.7 2.7 0 0 1 1.78.9m0 0 .05.06m-.05-.06.05.06m0 0c.55.64.65 1.4.65 2.21v.44m0 0v.08m0-.08v.08m0 0v.08m0-.08v.08m0 0c0 .48-.1.9-.44 1.25-.33.3-.7.42-1.15.42a10.03 10.03 0 0 0-.64 0h-.29m0 0h-.05m.05 0h-.05m0 0h-.16m0 0h-.05m.05 0h-.05m0 0-.15-.01c-.04-.07-.04-.07-.06-.16m0 0-.01-.06m.01.06-.01-.06m0 0-.03-.12m.03.12-.03-.12m0 0a42.6 42.6 0 0 0-.04-.18l-.03-.13m0 0-.01-.06m0 .06v-.06m0 0a3.13 3.13 0 0 1-.07-.42h.42m0 0h.18m-.18 0h.18m0 0 .25-.01m0 0h.09m-.09 0h.09m0 0h.07m-.07 0h.07m0 0h.08m-.08 0h.08m0 0a.71.71 0 0 0 .45-.2.95.95 0 0 0 .16-.2c.05-.1.05-.24.05-.6a18.98 18.98 0 0 1 0-.39m0 0V9m0 .07V9m0 0v-.08m0 .08v-.08m0 0v-.06m0 .06v-.06m0 0V8.8m0 .06V8.8m0 0c-.02-.06-.04-.08-.09-.12a.37.37 0 0 0-.22.02.31.31 0 0 0-.06.14m0 0v.06m0-.06v.06m0 0v.06m0-.06v.06m0 0a11.89 11.89 0 0 1 0 .56m0 0v.07m0-.07v.07m0 0c0 .16 0 .27-.1.4-.08.05-.12.08-.16.09l-.19.01m0 0h-.08m.08 0h-.08m0 0a31.92 31.92 0 0 1-.97 0l-.16-.72m0 0v-.03m0 .03v-.03m0 0L10.08 9a318.98 318.98 0 0 0-.32-1.36l-.02-.1m0 0-.02-.1m.02.1-.02-.1m0 0-.02-.08m.02.08-.02-.08m0 0a.35.35 0 0 0-.08-.18.4.4 0 0 0-.18-.04m0 0H9.4m.05 0H9.4m0 0a19.47 19.47 0 0 0-.97 0h-.65m0 0H7.7m.08 0H7.7m0 0v-.03m0 .02v-.02m1.9-1.68c.34.11.68.11 1.03.1a2.28 2.28 0 0 0 1.93-2.56 2.34 2.34 0 0 0-.9-1.55A2.26 2.26 0 0 0 8.17 2.5c-.2.56-.19 1.2.07 1.73.26.54.7.98 1.27 1.19m.08.02-.08-.02m.08.02-.08-.02m2.02-3.56a1.86 1.86 0 0 0-2.64.16 1.95 1.95 0 0 0-.28 2.07m2.92-2.23.05.04m-.05-.04.05.04m0 0c.13.13.24.26.34.42a2 2 0 0 1 .19 1.48 1.88 1.88 0 0 1-3.47.35m0 0-.03-.06m.03.06-.03-.06"/></svg>