<svg xmlns="http://www.w3.org/2000/svg" width="17" height="13" fill="none"><path fill="#E7B44A" d="M15 10.12c0 1.04-.9 1.88-2.01 1.88H2.3c-.17 0-.31-.13-.31-.29v-1.6c0-1.03.9-1.87 2.01-1.87h9c1.1 0 2.01.84 2.01 1.88Z"/><path fill="#F5D77F" d="M10.36 10.12c0 1.04-.9 1.88-2.01 1.88H2v-1.88c0-1.04.9-1.88 2.01-1.88h6.35v1.88Z"/><path fill="#E7B44A" d="M13.76 6.21c0 .8-.7 1.45-1.55 1.45-.85 0-1.54-.65-1.54-1.45 0-.8.69-1.45 1.54-1.45.86 0 1.55.65 1.55 1.45Z"/><path fill="#C59A36" d="M13.76 6.21c0 .8-.7 0-1.55 0-.85 0-1.54.8-1.54 0s.69-1.45 1.54-1.45c.86 0 1.55.65 1.55 1.45Z"/><path fill="#fff" d="M4.08 2.27a3 3 0 0 1 .62-.63l2.55 1.83c.3.22.34.62.1.89a.69.69 0 0 1-.96.03L4.08 2.27Z"/><path fill="#F5D77F" fill-rule="evenodd" d="M9.74 3.9c0 1.6-1.39 2.89-3.1 2.89-1.7 0-3.1-1.3-3.1-2.9 0-.6.2-1.15.54-1.62L6.39 4.4c.27.25.7.24.95-.03a.59.59 0 0 0-.09-.89L4.7 1.64A3.2 3.2 0 0 1 6.64 1c1.71 0 3.1 1.3 3.1 2.9Z" clip-rule="evenodd"/></svg>