<svg xmlns="http://www.w3.org/2000/svg" width="50" height="50" fill="none"><g clip-path="url(#a)"><path fill="url(#b)" d="M0 12A12 12 0 0 1 12 0h26a12 12 0 0 1 12 12v26a12 12 0 0 1-12 12H12A12 12 0 0 1 0 38V12Z"/><path fill="#fff" d="M28.82 35a9.92 9.92 0 0 1-7.22-2.9 9.56 9.56 0 0 1-2.96-7.1c0-2.77.98-5.13 2.96-7.08A9.9 9.9 0 0 1 28.82 15a9.9 9.9 0 0 1 7.2 2.92A9.55 9.55 0 0 1 39 25c0 2.8-1 5.16-2.98 7.1a9.93 9.93 0 0 1-7.2 2.9Zm0-2.5a7.4 7.4 0 0 0 5.4-2.19A7.17 7.17 0 0 0 36.46 25c0-2.08-.74-3.85-2.22-5.31a7.43 7.43 0 0 0-5.41-2.19c-2.12 0-3.93.73-5.41 2.19A7.17 7.17 0 0 0 21.18 25c0 2.08.74 3.85 2.23 5.31a7.43 7.43 0 0 0 5.4 2.19Zm1.27-8v-3.25c0-.35-.12-.65-.36-.9a1.24 1.24 0 0 0-.91-.35 1.24 1.24 0 0 0-1.27 1.25v3.78c0 .17.03.33.1.49.08.15.17.28.28.39l2.9 2.84c.25.25.55.38.9.38s.65-.13.9-.38a1.22 1.22 0 0 0 .01-1.78l-2.55-2.47Zm-16.54-3.25A1.24 1.24 0 0 1 12.27 20a1.24 1.24 0 0 1 1.27-1.25h2.55A1.24 1.24 0 0 1 17.36 20c0 .35-.12.65-.36.9-.25.23-.55.35-.9.35h-2.55Zm-1.28 5A1.24 1.24 0 0 1 11 25a1.24 1.24 0 0 1 1.27-1.25h3.82A1.24 1.24 0 0 1 17.36 25c0 .35-.12.65-.36.9-.25.23-.55.35-.9.35h-3.83Zm1.28 5A1.24 1.24 0 0 1 12.27 30a1.24 1.24 0 0 1 1.27-1.25h2.55A1.24 1.24 0 0 1 17.36 30c0 .35-.12.65-.36.9-.25.23-.55.35-.9.35h-2.55Z"/></g><defs><linearGradient id="b" x1="50" x2="0" y1="50" y2="0" gradientUnits="userSpaceOnUse"><stop stop-color="#B053EB"/><stop offset="1" stop-color="#A78BFA"/></linearGradient><clipPath id="a"><path fill="#fff" d="M0 0h50v50H0z"/></clipPath></defs></svg>