<svg xmlns="http://www.w3.org/2000/svg" fill="none" viewBox="0 0 50 50"><path fill="#E7B44A" d="M46 37.5a6.5 6.5 0 0 1-6.5 6.5H5a1 1 0 0 1-1-1v-5.5a6.5 6.5 0 0 1 6.5-6.5h29a6.5 6.5 0 0 1 6.5 6.5Z"/><path fill="#F5D77F" d="M31 37.5a6.5 6.5 0 0 1-6.5 6.5H4v-6.5a6.5 6.5 0 0 1 6.5-6.5H31v6.5Z"/><circle cx="37" cy="24" r="5" fill="#E7B44A"/><path fill="#C59A36" d="M42 24c0 2.76-2.24 0-5 0s-5 2.76-5 0a5 5 0 0 1 10 0Z"/><path fill="#fff" d="M10.72 10.4a9.65 9.65 0 0 1 2-2.18l8.24 6.32a2.11 2.11 0 1 1-2.76 3.19l-7.48-7.33Z"/><path fill="#F5D77F" fill-rule="evenodd" d="M29 16a10 10 0 1 1-18.28-5.6l7.48 7.33a2.11 2.11 0 1 0 2.76-3.19l-8.24-6.32A10 10 0 0 1 29 16Z" clip-rule="evenodd"/></svg>